<svg xmlns="http://www.w3.org/2000/svg" viewBox="0 0 92.01 87.89"><defs><style>.cls-1{fill:#f7e6d3;}.cls-2{fill:#ffd082;}.cls-3{fill:#ff6500;}.cls-4{fill:#fefdf5;}</style></defs><title>Asset 2</title><g id="Layer_2" data-name="Layer 2"><g id="Layer_1-2" data-name="Layer 1"><path class="cls-1" d="M43.68,23.85c.06.29-.15.39-.64.3q-.59-.87-1.23-1.71a7.47,7.47,0,0,1-.39-9.25c1.07-1.72,3.08-3.36,3.86-5.32a7.67,7.67,0,0,0,0-5.91A9.05,9.05,0,0,1,44.79.19c0-.22,0-.25.18-.09q5.09,5.15,1.75,11.15c-.83,1.49-2.68,3.16-3.43,5A8.78,8.78,0,0,0,43.68,23.85Z"/><path class="cls-2" d="M50.09,24.38a7.29,7.29,0,0,1-.43,3.4c-.21.56,0,.83.58.81a9.67,9.67,0,0,1,7.08,2.29,6.93,6.93,0,0,0,3.86,2.41A3.54,3.54,0,0,0,62,35.62a.89.89,0,0,1-.1,1.26l0,0a1.05,1.05,0,0,1-.29.17c-1,.32-2.71-.42-3.73-.69a.37.37,0,0,0-.49.21v0a1,1,0,0,1-.72.64,1.34,1.34,0,0,1-1-.16,2.72,2.72,0,0,0-2.74-.23c-2.09,1.12-5.54.9-7.62.27A10.9,10.9,0,0,0,42,36.58q-4.16.08-7.6.36a5.07,5.07,0,0,1-1.6-.27c-.19-.06-.3,0-.3.22,0,.64-.37.89-1,.81a9.63,9.63,0,0,0-3.7-.3C26.56,36,28.81,34,29.69,33a9.14,9.14,0,0,1,2.53-2c2.36-1.29,5.24-3,7.81-2.94q3,.06,6.4-.08a1.29,1.29,0,0,0,1.36-1.2h0A5,5,0,0,0,47.22,24q-4.2-5.15-.43-9c.65-.68.85-.57.54.33-.64,2-.21,3.55,1,5.46A17,17,0,0,1,50.09,24.38Z"/><path class="cls-3" d="M43.68,23.85a3.1,3.1,0,0,0,3.54.16,5.06,5.06,0,0,1,.57,2.83,1.29,1.29,0,0,1-1.36,1.21h0c-2.31.1-4.44.12-6.4.08-2.57-.06-5.45,1.64-7.81,2.93a9.33,9.33,0,0,0-2.53,2c-.88,1-3.13,2.95-2,4.38a66.28,66.28,0,0,1-12.54-1.8c-1.68-.45-6.14-2-6.91-3.65-1-2.15,3.86-3.8,5.14-4.15A86.6,86.6,0,0,1,29.8,25.09q6.52-.48,13.08-.69c.11,0,.17-.09.16-.26C43.53,24.24,43.76,24.14,43.68,23.85ZM18.55,33l.23,1.21a.29.29,0,0,0,.34.23h.09c6.2-1.22,11.17-2.5,11.1-2.86h0l-.09-.47c-.07-.36-5.15.32-11.35,1.54h-.09a.29.29,0,0,0-.24.34Z"/><path class="cls-3" d="M50.09,24.38c8.27.3,16.81.71,25,2.5a31.83,31.83,0,0,1,7.72,2.62,1.84,1.84,0,0,1,1.08,2.36l-.09.21a3,3,0,0,1-1.59,1.42,25,25,0,0,1-4.88,1.93A76.26,76.26,0,0,1,63,37.68c-1.62,0-3,.13-4.09.22-2.14.16-3.5.26-4.07.28q-9.16.26-16.77,0-2.55-.07-6.62-.49c.64.08,1-.2,1-.82,0-.2.11-.28.3-.22a5.12,5.12,0,0,0,1.6.23q3.45-.29,7.6-.36a10.9,10.9,0,0,1,3.35.56c2.08.64,5.53.84,7.62-.27a2.74,2.74,0,0,1,2.75.22,1.23,1.23,0,0,0,1,.16,1,1,0,0,0,.72-.64.38.38,0,0,1,.47-.25h0c1,.28,2.73,1,3.73.69a.9.9,0,0,0,.58-1.13h0a.73.73,0,0,0-.15-.29,3.59,3.59,0,0,1-.81-2.33A5.69,5.69,0,0,1,64,34c.32.2.43.45.32.73a.46.46,0,0,1-.45.31,1,1,0,0,0-.84.44c-.13.21-.08.3.17.27q4.6-.55,9.16-1.44a1.8,1.8,0,0,0,.8-.35,1.1,1.1,0,0,0,.41-.83.54.54,0,0,0-.42-.54,63.79,63.79,0,0,0-15.81-1.75,9.67,9.67,0,0,0-7.08-2.3c-.6,0-.79-.24-.58-.8A7.29,7.29,0,0,0,50.09,24.38Z"/><path class="cls-3" d="M26.48,38.91c17,1.52,32.4,1.37,48.66-1.34a.77.77,0,0,1,.79.38q4.8,9.33,9.73,18.83,1.92,3.72,5.53,11.29a6.8,6.8,0,0,1-.49,7.25,17.6,17.6,0,0,1-6.88,5.35,51.35,51.35,0,0,1-9.45,3.78,118.13,118.13,0,0,1-53.65.68C15.06,83.9-.79,78.7,0,70.69a13.07,13.07,0,0,1,1.6-4.17Q6.13,57.78,10.5,49c1.55-3.16,4-7.28,5.63-11.06a.74.74,0,0,1,.89-.48C20.23,38,23.3,38.6,26.48,38.91ZM58.74,78.75c2.37-2.35,3.46-6.19,3.44-9.43q0-6-.22-11.9a9.49,9.49,0,0,0-.91-4.36A20.5,20.5,0,0,0,46.9,43a5.82,5.82,0,0,0-2.87.22,22.69,22.69,0,0,0-10.86,6.85A12.48,12.48,0,0,0,30,58.6q0,6.32.07,12.08c.05,4.07,2.74,7.51,5.66,10.08A14.88,14.88,0,0,0,39,82.86c2,1,5.56,3.07,7.54,2.69A23.57,23.57,0,0,0,58.74,78.75Z"/><path class="cls-4" d="M43.54,68.86c-.07,1.59-.11,3.22-.12,4.82q-.06,5.34-5.11,5.94c-.47.06-.54-.09-.22-.44a5.44,5.44,0,0,0,1.29-3.81c0-2.43,0-4.86,0-7.3a.76.76,0,0,0-.36-.64c-4.61-3-4.42-8.93-.05-12a.73.73,0,0,0,.31-.51c.23-1.46.39-3.3-1.48-3.71a.44.44,0,0,1-.33-.52h0a.34.34,0,0,1,.06-.15.59.59,0,0,1,.51-.2c3.32,0,6.65,0,10,0a11.49,11.49,0,0,1,4.69,1.11,8.36,8.36,0,0,1,3.66,2.93,8.68,8.68,0,0,1-2.13,11.71A15.57,15.57,0,0,1,43.9,68.59a.27.27,0,0,0-.35.17A.34.34,0,0,0,43.54,68.86Zm1.25-8.22c.16-1,.65-1.18,1.49-.72,1.32.76,2,.47,2-.87,0-2.31-2.57-3.15-4.45-3.66a.31.31,0,0,0-.39.22h0v.08l0,11.58a.37.37,0,0,0,.36.37h.05A13.79,13.79,0,0,0,49.1,66.5c4.09-2.23,5.06-7.65,3.06-11.61a6,6,0,0,0-4.61-3.59,23.12,23.12,0,0,0-3.53.07.6.6,0,0,0-.65.55.76.76,0,0,0,0,.15l.07,2a.5.5,0,0,0,.44.56.44.44,0,0,0,.2,0,4.41,4.41,0,0,1,2.39.52,4.66,4.66,0,0,1,3.05,4.57c-.05,2.22-1.38,3.8-3.74,3.14a1.34,1.34,0,0,1-1.12-1.53,1.16,1.16,0,0,1,0-.18ZM39.36,57a.38.38,0,0,0-.38-.38h0a.38.38,0,0,0-.32.18l-1.93,3.13a.37.37,0,0,0,0,.23L37,63.89a.32.32,0,0,0,.08.21L38.67,66a.39.39,0,0,0,.53.06.41.41,0,0,0,.14-.31Z"/></g></g></svg>