<svg xmlns="http://www.w3.org/2000/svg" viewBox="0 0 512.92 140.5"><defs><style>.cls-1{fill:#f7e6d3;}.cls-2{fill:#ffd082;}.cls-3{fill:#ff6500;}.cls-4{fill:#fdfdfe;}.cls-5{fill:#fefdf5;}.cls-6{font-size:24.37px;fill:#fcfcfc;font-family:MyriadPro-Bold, Myriad Pro;font-weight:700;letter-spacing:0.05em;}</style></defs><title>Asset 1</title><g id="Layer_2" data-name="Layer 2"><g id="Layer_1-2" data-name="Layer 1"><path class="cls-1" d="M67.87,37.07c.1.46-.23.62-1,.47-.6-.9-1.24-1.78-1.9-2.65Q59.67,28,64.35,20.5c1.67-2.66,4.79-5.22,6-8.27a11.84,11.84,0,0,0,.08-9.18A14.13,14.13,0,0,1,69.6.3c-.06-.34,0-.39.28-.14q7.89,8,2.71,17.33c-1.28,2.31-4.16,4.91-5.33,7.73A13.65,13.65,0,0,0,67.87,37.07Z"/><path class="cls-2" d="M77.83,37.9a11.22,11.22,0,0,1-.67,5.29c-.32.87,0,1.29.91,1.25a15,15,0,0,1,11,3.57,10.78,10.78,0,0,0,6,3.74,5.58,5.58,0,0,0,1.26,3.62,1.39,1.39,0,0,1-.2,2,1.53,1.53,0,0,1-.45.25c-1.56.5-4.22-.64-5.8-1.07a.58.58,0,0,0-.77.37,1.56,1.56,0,0,1-1.12,1,2,2,0,0,1-1.49-.25,4.25,4.25,0,0,0-4.27-.35c-3.25,1.73-8.61,1.4-11.84.42a16.83,16.83,0,0,0-5.21-.87q-6.45.12-11.82.56A8,8,0,0,1,50.88,57c-.3-.09-.46,0-.47.34,0,1-.57,1.39-1.58,1.27a15,15,0,0,0-5.76-.47c-1.81-2.22,1.69-5.27,3.06-6.8a14.4,14.4,0,0,1,3.92-3.06c3.68-2,8.15-4.65,12.15-4.56q4.58.09,9.94-.13a2,2,0,0,0,2.12-1.88,7.87,7.87,0,0,0-.89-4.39q-6.53-8-.66-14c1-1.06,1.31-.88.84.52-1,3.15-.33,5.51,1.58,8.48A26.16,26.16,0,0,1,77.83,37.9Z"/><path class="cls-3" d="M67.87,37.07c1.46,1.22,3.3,1.3,5.5.26a7.87,7.87,0,0,1,.89,4.39,2,2,0,0,1-2.12,1.88q-5.37.23-9.94.13c-4-.09-8.47,2.55-12.15,4.56a14.4,14.4,0,0,0-3.92,3.06c-1.37,1.53-4.87,4.58-3.06,6.8a103,103,0,0,1-19.49-2.79c-2.6-.7-9.54-3.15-10.74-5.67-1.58-3.35,6-5.91,8-6.45A134.14,134.14,0,0,1,46.3,39q10.14-.75,20.32-1.07c.18,0,.27-.14.26-.4C67.64,37.69,68,37.53,67.87,37.07ZM28.8,51.28l.37,1.88a.45.45,0,0,0,.52.36l.15,0c9.63-1.89,17.36-3.88,17.25-4.44h0l-.15-.74c-.1-.56-8,.51-17.63,2.4h0l-.15,0A.45.45,0,0,0,28.8,51.28Z"/><path class="cls-3" d="M77.83,37.9c12.86.47,26.14,1.11,38.79,3.89a49.5,49.5,0,0,1,12,4.07,2.85,2.85,0,0,1,1.53,4,4.6,4.6,0,0,1-2.46,2.2,39.26,39.26,0,0,1-7.59,3,118,118,0,0,1-22.26,3.51c-2.52.09-4.63.2-6.35.34q-5,.39-6.33.44-14.25.39-26.07.07c-2.65-.08-6.08-.33-10.29-.77,1,.12,1.54-.31,1.58-1.27,0-.32.17-.43.47-.34a8,8,0,0,0,2.48.35q5.37-.44,11.82-.56a16.83,16.83,0,0,1,5.21.87c3.23,1,8.59,1.31,11.84-.42a4.25,4.25,0,0,1,4.27.35,2,2,0,0,0,1.49.25,1.56,1.56,0,0,0,1.12-1,.58.58,0,0,1,.77-.37c1.58.43,4.24,1.57,5.8,1.07a1.39,1.39,0,0,0,.89-1.76,1.31,1.31,0,0,0-.24-.45,5.58,5.58,0,0,1-1.26-3.62,8.85,8.85,0,0,1,4.39,1.16c.5.32.66.7.49,1.14a.72.72,0,0,1-.69.49,1.46,1.46,0,0,0-1.31.68c-.21.32-.12.46.26.42q7.16-.87,14.24-2.24a2.8,2.8,0,0,0,1.25-.54,1.74,1.74,0,0,0,.63-1.29.84.84,0,0,0-.65-.85A99.63,99.63,0,0,0,89.07,48a15,15,0,0,0-11-3.57c-.93,0-1.23-.38-.91-1.25A11.22,11.22,0,0,0,77.83,37.9Z"/><path class="cls-4" d="M176.89,45.09l0,55.27a.57.57,0,0,1-.64.64l-12.77,0a.22.22,0,0,1-.25-.25q.09-25,0-50,0-4.44-1.27-6.47a1.8,1.8,0,0,0-.8-.72l-2.33-1.14a1.4,1.4,0,0,1-.25-2.32,1,1,0,0,1,.67-.24q13.56-.24,27.12,0c7.86.1,17.42,3.56,20,11.66q4.47,14.1-7.1,21.17a33.89,33.89,0,0,1-19.14,4.63.74.74,0,0,1-.7-.58,1.74,1.74,0,0,1,1-2.17c3.46-1.71,7.94-2.57,10.31-6.19,4.23-6.47,4-21.2-5.31-23.39a24.46,24.46,0,0,0-8-.4A.48.48,0,0,0,176.89,45.09Z"/><path class="cls-4" d="M236.3,96.3a.51.51,0,0,0-.63-.33.44.44,0,0,0-.22.16c-5.61,6.64-15.79,8-22.31,2.05q-3.69-3.36-4.39-9.77C207.28,75,219.5,69,230.45,65.89a11.68,11.68,0,0,0,3.28-1.52,5,5,0,0,0,.85-7.58q-1.65-1.6-5.22-1.71A20.47,20.47,0,0,0,215.15,60c-.82.68-1.31.49-1.48-.55-.14-.84-.28-1.68-.41-2.52a2.14,2.14,0,0,1,1.1-2.39,32.34,32.34,0,0,1,20.77-4.71q12.94,1.39,13.15,14.43.25,17.55.2,36.23a.45.45,0,0,1-.48.51C243.7,101.24,238,101.36,236.3,96.3ZM234.53,69c-7.34,2.92-13.94,7.34-13.73,15.76.18,7.35,4.88,12.13,12.6,9a5.79,5.79,0,0,0,2.19-1.59,1.46,1.46,0,0,0,.36-1V70Q235.94,68.42,234.53,69Z"/><path class="cls-4" d="M334,96.42c-.22-.64-.54-.7-1-.19q-5,5.79-11.9,5.74-8.06-.09-12-5.64c-4-5.66-3.84-13.9.14-19.67,4.28-6.19,13.3-8.85,19.86-11.14,2-.71,3.88-1.78,4.26-4.1,1.39-8.31-11-6.83-15.23-4.85a26.68,26.68,0,0,0-5.48,3.48c-.61.5-1,.37-1.21-.39l-.75-2.79a1.55,1.55,0,0,1,.66-1.81q11-7.64,24.63-4.58,7,1.56,8.74,7.1A34.59,34.59,0,0,1,346.16,68q-.09,16.17-.1,32.34a.5.5,0,0,1-.5.56C341.38,101.34,335.66,101.36,334,96.42Zm-1.4-27.66c-7.79,2.68-14.9,8.07-14.12,17.5.37,4.56,3.38,8.63,8.24,8.5,2.13-.06,6.69-1.22,6.75-4q.22-10.87-.16-21.51C333.29,68.77,333.06,68.6,332.6,68.76Z"/><path class="cls-4" d="M440.57,52.14c8.73-4.08,18.53-2.93,26.5,2.81a1.09,1.09,0,0,1,.31,1.65l-1.77,2.71c-.44.66-.93.71-1.48.15-2.73-2.77-6.75-5.05-10.73-4.94-5.42.14-8,4.21-5.75,9.5q1,2.31,5.59,4.83,3.76,2.06,7.37,4.41a27.29,27.29,0,0,1,6.56,5.46,13.49,13.49,0,0,1-2.65,19.18,19,19,0,0,1-8.41,3.6q-12.75,2.2-22.28-5.3c-1-.82-1.06-1.65-.06-2.5.42-.37.92-.79,1.49-1.27a2.77,2.77,0,0,1,3.31-.22q3.4,2.22,6.36,3.89c2.49,1.41,7,1.58,9.39,0,3.11-2.09,3.5-6,1.75-9.23q-1.12-2-5.79-4.71a102.19,102.19,0,0,1-10.67-6.89C431,68.78,429.9,57.14,440.57,52.14Z"/><path class="cls-5" d="M409.29,53.35a1.77,1.77,0,0,1-1.43-2.11.52.52,0,0,1,.58-.5l15.44-.05q.54,0,.54.54.06,20.87,0,41.7c0,4.44-.59,7.69-5.58,8-2.12.11-4.24.13-6.34,0a.46.46,0,0,1-.51-.52q0-21.44-.07-42.85C411.88,55.5,411.26,54,409.29,53.35Z"/><path class="cls-4" d="M289.11,77.82a.23.23,0,0,0-.12.31v0L302.06,100c.33.55.17.85-.47.9-6,.41-13.19,1.08-16.28-4.57q-4.41-8.07-8.92-16a4,4,0,0,1-.31-3.4.64.64,0,0,1,.66-.49q8.16-.18,9.53-8.11c.81-4.74-.38-12.13-6.16-12.93a34.71,34.71,0,0,0-7.32-.27.42.42,0,0,0-.4.44l0,45a.39.39,0,0,1-.36.37,86.4,86.4,0,0,1-11.6-.06.48.48,0,0,1-.5-.54q.12-21.16,0-42.23c0-2.13-.15-3.39-2.11-4.32a5.68,5.68,0,0,1-1.42-.87q-2.27-2.05.79-2.09,12.33-.12,25.85.1c8.78.15,17.59,5.19,17.08,14.93A10.87,10.87,0,0,1,295,74.69,36.24,36.24,0,0,1,289.11,77.82Z"/><path class="cls-4" d="M357.2,56.26c-.25-2-1.45-2.77-3.23-3.17a.66.66,0,0,1-.55-.59,1.82,1.82,0,0,1,.32-1.39,1,1,0,0,1,.79-.42q12-.06,24.09.13c9.3.14,17.86,4.42,21.73,13.22,3.27,7.45,2.85,18.49-1.1,25.5-4.6,8.16-13.43,11.22-22.63,11.4q-9.37.18-18.77-.07a.28.28,0,0,1-.31-.32q.15-19.6,0-39.29A46.13,46.13,0,0,0,357.2,56.26Zm12.69-.06L370,95.54a1.09,1.09,0,0,0,1.1,1.08h2.66c8.11,0,14.67-7.33,14.66-16.34h0l0-8.9c0-9-6.61-16.3-14.72-16.28H371a1.08,1.08,0,0,0-1.08,1.1Z"/><path class="cls-4" d="M493,72.74l13.15,0a.52.52,0,0,1,.52.52h0v3.28a.68.68,0,0,1-.77.77l-13.34-.05a.35.35,0,0,0-.37.35v0L492.3,96a.57.57,0,0,0,.56.56l19.19.05a.73.73,0,0,1,.82.82V100a1,1,0,0,1-1,1l-31.7.06a.51.51,0,0,1-.51-.51h0q0-21.77,0-43.74c0-2.3-2-3-3.64-3.88a1.1,1.1,0,0,1-.56-1.27c.16-.63.63-.94,1.43-.93q17.82.06,35.27.07a.66.66,0,0,1,.74.73l0,2.78a.71.71,0,0,1-.8.8l-19.34,0a.56.56,0,0,0-.57.57l.08,16.49A.58.58,0,0,0,493,72.74Z"/><path class="cls-3" d="M41.14,60.49c26.38,2.36,50.36,2.12,75.63-2.08A1.18,1.18,0,0,1,118,59q7.47,14.49,15.12,29.26,3,5.78,8.6,17.56a10.56,10.56,0,0,1-.76,11.27q-3.27,4.68-10.7,8.31a79.15,79.15,0,0,1-14.69,5.87,183.56,183.56,0,0,1-83.39,1.07c-8.8-1.92-33.44-10-32.16-22.45A20.54,20.54,0,0,1,2.5,103.4q7-13.59,13.79-27.28c2.42-4.9,6.21-11.31,8.76-17.19a1.13,1.13,0,0,1,1.38-.74C31.42,59.06,36.19,60,41.14,60.49Zm50.14,61.93c3.68-3.66,5.38-9.63,5.35-14.66q-.06-9.26-.34-18.5-.15-4.64-1.42-6.78a31.83,31.83,0,0,0-22-15.57,9,9,0,0,0-4.45.34A35.29,35.29,0,0,0,51.53,77.9a19.4,19.4,0,0,0-4.89,13.2q0,9.81.1,18.77c.08,6.33,4.27,11.67,8.81,15.67a23.46,23.46,0,0,0,5.1,3.27c3.13,1.55,8.63,4.77,11.72,4.18Q82.63,131,91.28,122.42Z"/><path class="cls-5" d="M67.65,107.05c-.1,2.47-.17,5-.19,7.48q-.08,8.3-7.93,9.24c-.73.09-.85-.14-.35-.68a8.41,8.41,0,0,0,2-5.92c0-3.78.07-7.56.07-11.35a1.21,1.21,0,0,0-.56-1c-7.16-4.6-6.87-13.88-.08-18.69a1.14,1.14,0,0,0,.49-.79c.35-2.27.6-5.12-2.31-5.77a.67.67,0,0,1-.51-.81.48.48,0,0,1,.1-.23.9.9,0,0,1,.79-.3q7.74-.06,15.5,0a17.86,17.86,0,0,1,7.29,1.72,12.88,12.88,0,0,1,5.68,4.56,13.49,13.49,0,0,1-3.31,18.2q-6.61,4.62-16.11,3.91A.43.43,0,0,0,67.65,107.05ZM69.6,94.26q.36-2.2,2.31-1.11c2.06,1.17,3.12.72,3.16-1.35.08-3.59-4-4.91-6.92-5.7a.49.49,0,0,0-.6.35.49.49,0,0,0,0,.12l-.05,18a.57.57,0,0,0,.56.58h.07c2.76-.24,5.85-.51,8.17-1.77,6.35-3.47,7.86-11.9,4.76-18.06q-2.47-4.92-7.17-5.58a37.25,37.25,0,0,0-5.49.11.94.94,0,0,0-1,1.1L67.51,84a.79.79,0,0,0,1,.86,6.84,6.84,0,0,1,3.71.81q4.86,2.25,4.75,7.11c-.08,3.44-2.15,5.9-5.82,4.88A2.09,2.09,0,0,1,69.47,95Zm-8.44-5.64a.59.59,0,0,0-.6-.59.57.57,0,0,0-.49.28l-3,4.87a.55.55,0,0,0-.08.36l.54,5.78a.59.59,0,0,0,.13.32l2.42,2.94a.6.6,0,0,0,.83.09.62.62,0,0,0,.22-.47Z"/><text class="cls-6" transform="translate(163.2 134.41) scale(1.1 1)">A LEGEND SINCE 1953</text></g></g></svg>