<svg id="Vintagio_Design" data-name="Vintagio Design" xmlns="http://www.w3.org/2000/svg" viewBox="0 0 199.74 107.61"><title>clouds</title><g id="c"><path d="M191.5,123.5H90.8a8.43,8.43,0,0,1-8.4-9.3V114a23.58,23.58,0,0,1,20.9-20.4,22.85,22.85,0,0,1,9.5,1c.1-.1.1-.3.2-.5a31.23,31.23,0,0,1,28.7-19,28.91,28.91,0,0,1,8.4,1.2,31,31,0,0,1,21.2,20.5,20.74,20.74,0,0,1,28.4,16.9c0,.3.1.6.1,1a8.11,8.11,0,0,1-8.3,8.8Z" transform="translate(-0.1 -46.19)" style="fill:#cbbebb;fill-rule:evenodd"/><path d="M152.6,89.9c-2.5,4.2-7.8,5.7-12,8.4-5.7,3.7-10,10.3-16.7,11.4a8.79,8.79,0,0,1-5.5-.8,10.23,10.23,0,0,1-4-5.1,20.88,20.88,0,0,1-1.5-7,10,10,0,0,1,1.1-5.1A31.17,31.17,0,0,1,141.6,75a17,17,0,0,1,2.3.1,10.31,10.31,0,0,1,9.8,10.6,7,7,0,0,1-1.1,4.2Z" transform="translate(-0.1 -46.19)" style="fill:#fff;fill-rule:evenodd;opacity:0.20000000298023224;isolation:isolate"/><path d="M140.6,80.4H139a14.35,14.35,0,0,0-5.7,1.3,18.12,18.12,0,0,0-3.3,2c-1.6,1.2-3.1,3-2.5,5a3.24,3.24,0,0,0,2.2,2.2c1.6.4,2.9-.6,4-1.5a37.18,37.18,0,0,1,4.5-3.3,16.27,16.27,0,0,1,2.3-1.1c.7-.2,1.6-.1,2.2-.6a1.54,1.54,0,0,0,.5-1.3,2.7,2.7,0,0,0-.7-2.1,2.1,2.1,0,0,0-1.5-.5.6.6,0,0,0-.4-.1Z" transform="translate(-0.1 -46.19)" style="fill:#fff;fill-rule:evenodd;opacity:0.30000001192092896;isolation:isolate"/><path d="M124.3,90.9a1.4,1.4,0,0,1,.9.3,3.71,3.71,0,0,1,1.4,2.4,3.06,3.06,0,0,1-1.8,2.9,3.33,3.33,0,0,1-1.7.2,1.85,1.85,0,0,1-1.2-.7c-.8-1-.4-2.7.1-3.7a3,3,0,0,1,2.3-1.4Z" transform="translate(-0.1 -46.19)" style="fill:#fff;fill-rule:evenodd;opacity:0.30000001192092896;isolation:isolate"/><path d="M107.5,98.9h0a13.52,13.52,0,0,0-4.5.4,15,15,0,0,0-4.2,1.5,5.93,5.93,0,0,0-2.5,2.7c-.4,1.1-.7,2.7.6,3.3a2.85,2.85,0,0,0,1.6.2,9.6,9.6,0,0,0,3.4-1.6,9,9,0,0,1,4.4-1.8,16.41,16.41,0,0,0,2.3-.2,2.15,2.15,0,0,0,1.5-2.7,3.35,3.35,0,0,0-2.6-1.8Z" transform="translate(-0.1 -46.19)" style="fill:#fff;fill-rule:evenodd;opacity:0.30000001192092896;isolation:isolate"/><path d="M71,68.2A22.46,22.46,0,0,0,60.9,50a22.06,22.06,0,0,0-11.8-3.8A22.31,22.31,0,0,0,28.8,57.9a19.66,19.66,0,0,1-9.3,8.5,17.53,17.53,0,0,1-7.2,1.5h-.5A11.65,11.65,0,0,0,.1,79.6,11.61,11.61,0,0,0,11.8,91.3H48.6A22.58,22.58,0,0,0,71,68.2Z" transform="translate(-0.1 -46.19)" style="fill:#cbbebb;fill-rule:evenodd"/><path d="M61.9,59.1c-1.6,2.1-4.6,2.5-7.3,2.7-4.4.4-9.2,1-12.3,4.1-1.8,1.8-2.8,4.3-4.4,6.3A12.23,12.23,0,0,1,30,77a8.9,8.9,0,0,1-8.4-3.4,10.91,10.91,0,0,1-.6-1.1,6.86,6.86,0,0,1,2.3-8.3,19.74,19.74,0,0,0,5.5-6.3A22.61,22.61,0,0,1,49.1,46.2a24,24,0,0,1,8.5,1.9,9,9,0,0,1,5.1,6.4,5.29,5.29,0,0,1-.8,4.6Z" transform="translate(-0.1 -46.19)" style="fill:#fff;fill-rule:evenodd;opacity:0.20000000298023224;isolation:isolate"/><path d="M52.3,49.9c-1.6-1.6-5.7-1.3-7.3-.6a3.39,3.39,0,0,0-2.3,2.2A2,2,0,0,0,44.2,54c1.2.3,2.3-.5,3.4-.8a17.22,17.22,0,0,1,3.9-.4,2.77,2.77,0,0,0,.9-.1c1-.4.5-2.1-.1-2.8Z" transform="translate(-0.1 -46.19)" style="fill:#fff;fill-rule:evenodd;opacity:0.30000001192092896;isolation:isolate"/><path d="M39.8,56.8a1.3,1.3,0,0,0,.5-1.3,1.46,1.46,0,0,0-.6-.9c-.2-.2-.4-.4-.6-.4A1.74,1.74,0,1,0,38,57.5c.5.2,1.2-.2,1.8-.7Z" transform="translate(-0.1 -46.19)" style="fill:#fff;fill-rule:evenodd;opacity:0.30000001192092896;isolation:isolate"/><path d="M165.6,135.6a17.93,17.93,0,0,1-17.9,18.2H30.2A17.56,17.56,0,0,1,14,143.3a28.25,28.25,0,0,1-1.9-7.6,41,41,0,0,1-.2-5c.6-13.7,9.4-27.4,22.6-25.5h.1a28,28,0,0,1,.1-5.8c3.1-25.6,42.7-40.8,60.2-12.2A47.17,47.17,0,0,1,98.7,95c17.6-16.9,48.3.5,42.5,23.7h0c10.3-1.5,17.3,2,21.2,7.3a16.73,16.73,0,0,1,3.2,9.6Z" transform="translate(-0.1 -46.19)" style="fill:#ededed;fill-rule:evenodd"/><path d="M96,101.9c-.2,3.1-1.1,6.6-3.9,8-2.4,1.1-5.3.1-7.5-1.4s-4.3-3.4-6.8-4.1c-5.1-1.5-10.2,1.8-14.1,5.4s-7.8,7.8-13,8.6c-4.7.7-9.5-1.8-12.4-5.6a22.65,22.65,0,0,1-3.8-7.8h.1C31.9,76.1,76.1,56.3,94.9,87.1A56.87,56.87,0,0,1,96,101.9Z" transform="translate(-0.1 -46.19)" style="fill:#fff;fill-rule:evenodd;opacity:0.5;isolation:isolate"/><path d="M50.7,122.6c-2.8,2.6-7.4,1.2-10.8,2.8-4.5,2.1-5.1,8.4-8.6,11.9-3.7,3.7-10.2,3.5-14.4.4l-.1-.1a12.25,12.25,0,0,1-4.4-12.3c2.3-11.7,10.5-21.9,22-20.2h.1a28,28,0,0,1,.1-5.8,22.68,22.68,0,0,1,16.2,12,15.16,15.16,0,0,1,1.6,5.5,6.57,6.57,0,0,1-1.7,5.8Z" transform="translate(-0.1 -46.19)" style="fill:#fff;fill-rule:evenodd;opacity:0.5;isolation:isolate"/><path d="M72.4,78a4.38,4.38,0,0,0-3.8-2.3c-4-.1-8,.3-11.4,2.2a4.88,4.88,0,0,0-2.5,2.6,4.4,4.4,0,0,0-.2,1.6,4.47,4.47,0,0,0,1.1,3.2,3.77,3.77,0,0,0,3,1.1,6.8,6.8,0,0,0,3.1-1.1c.7-.5,1.3-1.1,2-1.5A10.52,10.52,0,0,1,67.9,82a10.64,10.64,0,0,0,3.5-.9,2.36,2.36,0,0,0,1-3.1Z" transform="translate(-0.1 -46.19)" style="fill:#fff;fill-rule:evenodd;opacity:0.8999999761581421;isolation:isolate"/><path d="M49.7,86.9a3.61,3.61,0,0,0-2,.6,8.38,8.38,0,0,0-2.5,3.4,5.48,5.48,0,0,0-.4,2.5,2.79,2.79,0,0,0,1.4,2.1,3.38,3.38,0,0,0,2,.2,6.59,6.59,0,0,0,4.9-4.1,4.64,4.64,0,0,0,.2-2.6h0a2.91,2.91,0,0,0-2.7-2.1Z" transform="translate(-0.1 -46.19)" style="fill:#fff;fill-rule:evenodd;opacity:0.8999999761581421;isolation:isolate"/><path d="M30.2,109.6a12.54,12.54,0,0,0-8.1,4.7,16.61,16.61,0,0,0-3.3,7.7,2.89,2.89,0,0,0,.5,2.4,2.3,2.3,0,0,0,1.4.4,3.93,3.93,0,0,0,2.4-.3c1.2-.6,1.7-2,2.2-3.2,1-2.6,2.6-5.2,5.2-6.1.2,0,.3-.1.5-.1a3.6,3.6,0,0,0,2.2-1.8,2.67,2.67,0,0,0-3-3.7Z" transform="translate(-0.1 -46.19)" style="fill:#fff;fill-rule:evenodd;opacity:0.8999999761581421;isolation:isolate"/><path d="M102.6,96.6a5.19,5.19,0,0,0-1.7,1.9,2.65,2.65,0,0,0-.2,2.3c.6,1.8,2.8,1.9,4.3,1.1a26.91,26.91,0,0,0,3.3-2.6,16.77,16.77,0,0,1,6.1-2.7,7,7,0,0,0,2-.8,1.61,1.61,0,0,0,.6-1.9c-.3-.7-1.2-.9-1.9-1a14.06,14.06,0,0,0-7.3,1.1l-1.1.4a16,16,0,0,0-4.1,2.2Z" transform="translate(-0.1 -46.19)" style="fill:#fff;fill-rule:evenodd;opacity:0.8999999761581421;isolation:isolate"/><path d="M142.5,125.8a41.69,41.69,0,0,1,5,0,11.63,11.63,0,0,1,7.7,3.6c5.1,5.9,1.1,14.8-5.7,16.9a26.67,26.67,0,0,1-8.9.8c-4-.2-8.1-.7-11.4-2.8-4.5-3-6.1-9.8-1.9-13.8a14.2,14.2,0,0,1,5.9-2.9,40.32,40.32,0,0,1,9.3-1.8Z" transform="translate(-0.1 -46.19)" style="fill:#cbbebb;fill-rule:evenodd;opacity:0.20000000298023224;isolation:isolate"/><path d="M111.1,135a10.38,10.38,0,0,0-3.7,2.9,3.3,3.3,0,0,0-.1,3.2,4.84,4.84,0,0,0,1.2,2.1c1.8,1.6,5.8,1.6,7.8.4a6.12,6.12,0,0,0,2.7-5.5,5.42,5.42,0,0,0-2.5-3.4c-1.4-.9-3.5-.6-5.4.3Z" transform="translate(-0.1 -46.19)" style="fill:#cbbebb;fill-rule:evenodd;opacity:0.20000000298023224;isolation:isolate"/></g></svg>