<svg id="Vintagio_Design" data-name="Vintagio Design" xmlns="http://www.w3.org/2000/svg" viewBox="0 0 200.04 169.01"><title>cloudy</title><g id="c"><path d="M145.7,46.4A31.6,31.6,0,0,0,86.4,32,27,27,0,0,1,73.3,43.9,26.45,26.45,0,0,1,63.2,46h-.7a16.4,16.4,0,1,0,0,32.8h51.6A31.66,31.66,0,0,0,145.7,46.4Z" transform="translate(0.04 -15.39)" style="fill:#cbbebb;fill-rule:evenodd"/><path d="M132.9,33.6c-2.2,3-6.5,3.5-10.2,3.8-6.2.5-12.8,1.4-17.2,5.7-2.6,2.5-4,6-6.2,8.8a16.88,16.88,0,0,1-11.2,6.7,12.7,12.7,0,0,1-11.8-4.8,5.3,5.3,0,0,1-.8-1.5,9.71,9.71,0,0,1,3.3-11.7,28.47,28.47,0,0,0,7.7-8.8,31.71,31.71,0,0,1,28.6-16.4,32.35,32.35,0,0,1,12,2.7,12.42,12.42,0,0,1,7.2,9,9.42,9.42,0,0,1-1.4,6.5Z" transform="translate(0.04 -15.39)" style="fill:#fff;fill-rule:evenodd;opacity:0.20000000298023224;isolation:isolate"/><path d="M119.4,20.7c-2.2-2.2-8-1.8-10.3-.9a5.1,5.1,0,0,0-3.3,3.1,3,3,0,0,0,2.1,3.6c1.6.4,3.2-.7,4.8-1.1a34.27,34.27,0,0,1,5.5-.6,2.54,2.54,0,0,0,1.2-.2c1.5-.5.8-3,0-3.9Z" transform="translate(0.04 -15.39)" style="fill:#fff;fill-rule:evenodd;opacity:0.30000001192092896;isolation:isolate"/><path d="M200,101.5a23.34,23.34,0,0,1-45.8,6.3,21.81,21.81,0,0,1-.9-6.3,23.26,23.26,0,0,1,23.3-23.3,23.56,23.56,0,0,1,7.5,1.2h0A23.22,23.22,0,0,1,200,101.5Z" transform="translate(0.04 -15.39)" style="fill:#cbbebb;fill-rule:evenodd"/><path d="M187.8,92.4c-6,7.9-18,11.5-26.9,15.2a6.37,6.37,0,0,1-.7.2,5.71,5.71,0,0,1-6.9-5.3c0-1,0-2,.1-3a23.36,23.36,0,0,1,21-21.1,24,24,0,0,1,9.7,1.1h0c4.3,3.5,7,8.5,3.7,12.9Z" transform="translate(0.04 -15.39)" style="fill:#fff;fill-rule:evenodd;opacity:0.20000000298023224;isolation:isolate"/><path d="M174.6,81.1a8,8,0,0,0-2.7.4,13,13,0,0,0-4.2,2.2,7,7,0,0,0-2.4,3.6,1.73,1.73,0,0,0,.4,1.7c1.1,1,3.3.3,4.4-.3.9-.5,1.7-1.3,2.6-1.9a21,21,0,0,1,3-1.5,2.92,2.92,0,0,0,1.2-.7,2.18,2.18,0,0,0,.4-2.2,2.49,2.49,0,0,0-1.4-1.1,6.88,6.88,0,0,0-1.3-.2Z" transform="translate(0.04 -15.39)" style="fill:#fff;fill-rule:evenodd;opacity:0.30000001192092896;isolation:isolate"/><path d="M102.9,29.5a2.09,2.09,0,0,0,.7-1.8,2.87,2.87,0,0,0-.8-1.3,2,2,0,0,0-.9-.6,2.8,2.8,0,0,0-3.4,2.3,2.8,2.8,0,0,0,1.8,2.4c.9.3,1.8-.4,2.6-1Z" transform="translate(0.04 -15.39)" style="fill:#fff;fill-rule:evenodd;opacity:0.30000001192092896;isolation:isolate"/><path d="M167.8,111.4a45.6,45.6,0,0,1-91.2,0,46.74,46.74,0,0,1,2.7-15.5,45.47,45.47,0,0,1,42.8-30A44.44,44.44,0,0,1,140,69.6a45.28,45.28,0,0,1,27.8,41.8Z" transform="translate(0.04 -15.39)" style="fill:#ffc34a;fill-rule:evenodd"/><path d="M127.7,98.3c-3.9-.4-7.8-1.2-11.7-1.1-6.5.3-10.5,3.6-13.5,9.1-2.6,4.7-4.6,10.5-10.1,12.5a7,7,0,0,1-7.2-1.1,10.43,10.43,0,0,1-2.2-3.5c0-.1-.1-.1-.1-.2a32.43,32.43,0,0,1,7.2-35.1,45.37,45.37,0,0,1,32-13.1,48.08,48.08,0,0,1,10.1,1.1,18.26,18.26,0,0,1,14.1,14.7,2.77,2.77,0,0,1,.1.9c1.2,11.2-8.6,16.9-18.7,15.8Z" transform="translate(0.04 -15.39)" style="fill:#ffe332;fill-rule:evenodd;opacity:0.6000000238418579;isolation:isolate"/><path d="M98,84a7.49,7.49,0,0,0-2.1.2,12.08,12.08,0,0,0-8.1,7.6c-.8,2.3-.6,5.3,2.1,6.3a3.21,3.21,0,0,0,1.7.2c2.1-.1,3.8-1.4,5.5-2.6l5.4-4.1a4.56,4.56,0,0,0,1.7-2.2c.8-2.1-.3-3.6-1.8-4.5a6.58,6.58,0,0,0-3.1-.9Z" transform="translate(0.04 -15.39)" style="fill:#fff;fill-rule:evenodd;opacity:0.30000001192092896;isolation:isolate"/><path d="M99.4,135.1a8.71,8.71,0,0,0,.6,5.3c4.3,9.8,20.3,14.9,27.9,6.1a10.55,10.55,0,0,0,.8-13,12.37,12.37,0,0,0-5-3.7c-6.1-2.8-16.3-5.3-21.6.2a8.82,8.82,0,0,0-2.7,5.1Z" transform="translate(0.04 -15.39)" style="fill:#fff;fill-rule:evenodd;opacity:0.15000000596046448;isolation:isolate"/><path d="M110.1,141.6a4,4,0,0,0,.6,3.6,6.41,6.41,0,0,0,3.5,2.2c1.4.4,3,.6,4.2-.3,2.2-1.7,1.5-5.7-.9-6.9a7.71,7.71,0,0,0-2.6-.7c-1.9-.2-4-.1-4.8,2.1Z" transform="translate(0.04 -15.39)" style="fill:#fff;fill-rule:evenodd;opacity:0.15000000596046448;isolation:isolate"/><path d="M122.4,111.4a.2.2,0,1,1-.4,0v-.1c0-.1.1-.1.2-.1h.1c.1.1.1.1.1.2Z" transform="translate(0.04 -15.39)" style="fill-rule:evenodd"/><path d="M175.4,163.7a20.71,20.71,0,0,1-3.4,11.6,20.18,20.18,0,0,1-16.9,9.1H20.9a20.09,20.09,0,0,1-18.5-12,28.55,28.55,0,0,1-2.2-8.7A36.22,36.22,0,0,1,0,158c.7-15.6,10.7-31.2,25.8-29.1h0a29.05,29.05,0,0,1,.1-6.6c3.6-29.2,48.7-46.5,68.7-13.9a56.7,56.7,0,0,1,4.3,8.9c20.1-19.3,55,.6,48.5,27.1h0c11.7-1.7,19.7,2.3,24.2,8.3a19.5,19.5,0,0,1,3.8,11Z" transform="translate(0.04 -15.39)" style="fill:#ededed;fill-rule:evenodd"/><path d="M95.9,125.3c-.3,3.5-1.2,7.6-4.4,9.1-2.8,1.3-6,.1-8.6-1.6s-4.9-3.8-7.8-4.7c-5.8-1.7-11.6,2.1-16.1,6.2s-8.8,8.9-14.8,9.8c-5.3.8-10.8-2.1-14.1-6.3a24.53,24.53,0,0,1-4.3-8.9h0c-3.1-33,47.4-55.5,68.8-20.5a56.82,56.82,0,0,1,1.3,16.9Z" transform="translate(0.04 -15.39)" style="fill:#fff;fill-rule:evenodd;opacity:0.5;isolation:isolate"/><path d="M44.3,148.9c-3.1,2.9-8.4,1.4-12.3,3.2-5.1,2.4-5.8,9.5-9.8,13.6-4.2,4.2-11.6,4-16.4.4l-.1-.1a13.87,13.87,0,0,1-5-14c2.6-13.3,12-24.9,25.1-23.1h0a29.05,29.05,0,0,1,.1-6.6A25.82,25.82,0,0,1,44.4,136a17.68,17.68,0,0,1,1.9,6.3,7.67,7.67,0,0,1-2,6.6Z" transform="translate(0.04 -15.39)" style="fill:#fff;fill-rule:evenodd;opacity:0.5;isolation:isolate"/><path d="M69,98a5.09,5.09,0,0,0-4.4-2.6c-4.5-.1-9.1.3-13,2.5a5.64,5.64,0,0,0-2.8,2.9,5.54,5.54,0,0,0-.2,1.8,6.07,6.07,0,0,0,1.2,3.7,4.44,4.44,0,0,0,3.4,1.3,7.09,7.09,0,0,0,3.5-1.3c.8-.5,1.5-1.2,2.2-1.7a11.41,11.41,0,0,1,4.8-2,16.74,16.74,0,0,0,4-1A2.83,2.83,0,0,0,69,98Z" transform="translate(0.04 -15.39)" style="fill:#fff;fill-rule:evenodd;opacity:0.8999999761581421;isolation:isolate"/><path d="M43.1,108.2a3.41,3.41,0,0,0-2.2.7,9.32,9.32,0,0,0-2.9,3.9,5.76,5.76,0,0,0-.5,2.9,3.12,3.12,0,0,0,1.6,2.4,4.16,4.16,0,0,0,2.2.2,7.51,7.51,0,0,0,5.6-4.6,5.11,5.11,0,0,0,.3-3h0a3.21,3.21,0,0,0-3-2.4l-1.1-.1Z" transform="translate(0.04 -15.39)" style="fill:#fff;fill-rule:evenodd;opacity:0.8999999761581421;isolation:isolate"/><path d="M20.9,134.1a14,14,0,0,0-9.2,5.3,19.27,19.27,0,0,0-3.8,8.8,2.59,2.59,0,0,0,.6,2.7,2.77,2.77,0,0,0,1.6.5,5.41,5.41,0,0,0,2.8-.3c1.4-.7,1.9-2.3,2.5-3.7,1.1-2.9,3-5.9,6-6.9.2-.1.4-.1.6-.2a3.88,3.88,0,0,0,2.5-2,3.17,3.17,0,0,0-3.6-4.2Z" transform="translate(0.04 -15.39)" style="fill:#fff;fill-rule:evenodd;opacity:0.8999999761581421;isolation:isolate"/><path d="M103.4,119.3a7,7,0,0,0-2,2.2,3.36,3.36,0,0,0-.3,2.6c.7,2.1,3.2,2.1,4.9,1.3a26.29,26.29,0,0,0,3.7-2.9,19.55,19.55,0,0,1,6.9-3.1,6.5,6.5,0,0,0,2.3-.9,2.05,2.05,0,0,0,.7-2.2,2.66,2.66,0,0,0-2.2-1.1,16.84,16.84,0,0,0-8.3,1.2l-1.3.5a14.67,14.67,0,0,0-4.4,2.4Z" transform="translate(0.04 -15.39)" style="fill:#fff;fill-rule:evenodd;opacity:0.8999999761581421;isolation:isolate"/><path d="M149,152.5a54.18,54.18,0,0,1,5.7,0c3.3.4,6.6,1.6,8.8,4.1,5.8,6.7,1.3,16.9-6.5,19.2a31.85,31.85,0,0,1-10.2.9c-4.5-.2-9.2-.8-13-3.2-5.2-3.4-6.9-11.2-2.1-15.7,1.8-1.8,4.3-2.6,6.8-3.3a50.07,50.07,0,0,1,10.5-2Z" transform="translate(0.04 -15.39)" style="fill:#cbbebb;fill-rule:evenodd;opacity:0.20000000298023224;isolation:isolate"/><path d="M113.2,163a11.22,11.22,0,0,0-4.2,3.3c-.8,1.1-.5,2.4-.1,3.6a5.27,5.27,0,0,0,1.4,2.4c2,1.9,6.6,1.8,8.9.4a7.26,7.26,0,0,0,3.1-6.3,6.3,6.3,0,0,0-2.9-3.9c-1.7-.9-4.1-.4-6.2.5Z" transform="translate(0.04 -15.39)" style="fill:#cbbebb;fill-rule:evenodd;opacity:0.20000000298023224;isolation:isolate"/></g></svg>