<svg id="Vintagio_Design" data-name="Vintagio Design" xmlns="http://www.w3.org/2000/svg" viewBox="0 0 200.01 171.3"><title>drizzle</title><g id="c"><path d="M127,35.7a21.3,21.3,0,1,1-21.3-21.3,21.54,21.54,0,0,1,6.8,1.1h0A21.27,21.27,0,0,1,127,35.7Z" transform="translate(-16.8 -14.3)" style="fill:#ededed;fill-rule:evenodd"/><path d="M115.9,27.4c-5.5,7.2-16.4,10.5-24.5,13.8-.2.1-.4.1-.6.2a5.28,5.28,0,0,1-6.3-4.9,27.15,27.15,0,0,1,.1-2.8,21.25,21.25,0,0,1,19.2-19.3,22,22,0,0,1,8.9,1h0c3.7,3.5,6.3,8,3.2,12Z" transform="translate(-16.8 -14.3)" style="fill:#fff;fill-rule:evenodd;opacity:0.5;isolation:isolate"/><path d="M103.9,17.1a6.37,6.37,0,0,0-2.4.4,14.4,14.4,0,0,0-3.9,2,6.41,6.41,0,0,0-2.2,3.2,1.61,1.61,0,0,0,.4,1.6c1,.9,3,.2,4-.3.8-.5,1.5-1.2,2.4-1.7a14.65,14.65,0,0,1,2.8-1.4,2.38,2.38,0,0,0,1.1-.6,1.84,1.84,0,0,0,.3-2,1.89,1.89,0,0,0-1.3-1,7.38,7.38,0,0,0-1.2-.2Z" transform="translate(-16.8 -14.3)" style="fill:#fff;fill-rule:evenodd;opacity:0.8999999761581421;isolation:isolate"/><path d="M216.8,71.2a28.8,28.8,0,0,0-12.9-23.3,28.44,28.44,0,0,0-15.1-4.8A29,29,0,0,0,162.7,58a24.46,24.46,0,0,1-11.9,10.8,24,24,0,0,1-9.2,1.9h-.7a15,15,0,0,0,0,30H188a28.72,28.72,0,0,0,28.8-29.5Z" transform="translate(-16.8 -14.3)" style="fill:#ededed;fill-rule:evenodd"/><path d="M205.1,59.6c-2,2.8-5.9,3.2-9.3,3.5-5.6.5-11.7,1.2-15.7,5.2-2.3,2.3-3.6,5.5-5.7,8.1a15.59,15.59,0,0,1-10.2,6.1,11.77,11.77,0,0,1-10.8-4.4,8.7,8.7,0,0,1-.8-1.4,8.81,8.81,0,0,1,3-10.7,25.78,25.78,0,0,0,7-8,28.78,28.78,0,0,1,26.1-14.9,28.09,28.09,0,0,1,10.9,2.5,11.44,11.44,0,0,1,6.6,8.2,7,7,0,0,1-1.1,5.8Z" transform="translate(-16.8 -14.3)" style="fill:#fff;fill-rule:evenodd;opacity:0.5;isolation:isolate"/><path d="M192.8,47.8c-2-2-7.3-1.6-9.4-.8-1.3.5-2.7,1.4-3,2.8a2.66,2.66,0,0,0,1.9,3.2c1.5.3,2.9-.6,4.4-1a20.71,20.71,0,0,1,5-.5,2,2,0,0,0,1.1-.2c1.4-.4.8-2.6,0-3.5Z" transform="translate(-16.8 -14.3)" style="fill:#fff;fill-rule:evenodd;opacity:0.8999999761581421;isolation:isolate"/><path d="M178.1,55.4a1.48,1.48,0,0,0,.6-1.6,2,2,0,0,0-.8-1.2,5.55,5.55,0,0,0-.8-.6,2.57,2.57,0,0,0-3.1,2.1,2.48,2.48,0,0,0,1.6,2.2,3,3,0,0,0,2.5-.9Z" transform="translate(-16.8 -14.3)" style="fill:#fff;fill-rule:evenodd;opacity:0.8999999761581421;isolation:isolate"/><path d="M188.3,95.8c3.3,1,8.7-.5,10.7-1.6,3.3-1.8,7.4-5.7,7.4-9.8a6,6,0,0,0-3.6-5.3,7.78,7.78,0,0,0-5.8.2,18,18,0,0,0-4.9,3.2,21.84,21.84,0,0,0-5.1,5.4,11.08,11.08,0,0,0-1.4,4.1,3.49,3.49,0,0,0,2.7,3.8Z" transform="translate(-16.8 -14.3)" style="fill:#cbbebb;fill-rule:evenodd;opacity:0.20000000298023224;isolation:isolate"/><path d="M171.3,81.6a41.6,41.6,0,0,1-83.2,0,41,41,0,0,1,2.5-14.1,41.56,41.56,0,0,1,39.1-27.4,40.79,40.79,0,0,1,16.4,3.4,41.27,41.27,0,0,1,25.2,38.1Z" transform="translate(-16.8 -14.3)" style="fill:#ffc34a;fill-rule:evenodd"/><path d="M134.8,69.6c-3.6-.4-7.1-1.1-10.7-1-5.9.2-9.6,3.3-12.3,8.3-2.4,4.3-4.2,9.6-9.2,11.4a6.35,6.35,0,0,1-6.5-1,10.74,10.74,0,0,1-2-3.2c0-.1,0-.1-.1-.2a29.29,29.29,0,0,1,6.6-32,41.44,41.44,0,0,1,29.2-12,39.92,39.92,0,0,1,9.2,1,16.41,16.41,0,0,1,12.8,13.4c0,.3.1.6.1.8,1,10.4-7.9,15.5-17.1,14.5Z" transform="translate(-16.8 -14.3)" style="fill:#ffe332;fill-rule:evenodd;opacity:0.6000000238418579;isolation:isolate"/><path d="M107.7,56.6a6.8,6.8,0,0,0-2,.2,10.89,10.89,0,0,0-7.4,6.9c-.7,2.1-.6,4.9,1.9,5.8a3.89,3.89,0,0,0,1.5.2c2-.1,3.5-1.3,5-2.4l4.9-3.7a4.47,4.47,0,0,0,1.6-2,3.22,3.22,0,0,0-1.7-4.1,6.94,6.94,0,0,0-2.8-.8l-1-.1Z" transform="translate(-16.8 -14.3)" style="fill:#fff;fill-rule:evenodd;opacity:0.30000001192092896;isolation:isolate"/><path d="M108.9,103.2a9.2,9.2,0,0,0,.5,4.9c3.9,9,18.5,13.6,25.4,5.6a9.64,9.64,0,0,0,.7-11.9,11.32,11.32,0,0,0-4.6-3.4c-5.5-2.6-14.9-4.8-19.7.2a10.53,10.53,0,0,0-2.3,4.6Z" transform="translate(-16.8 -14.3)" style="fill:#fff;fill-rule:evenodd;opacity:0.15000000596046448;isolation:isolate"/><path d="M118.8,109.2a3.61,3.61,0,0,0,.6,3.3,6.72,6.72,0,0,0,3.2,2,4.19,4.19,0,0,0,3.8-.3c2-1.6,1.4-5.2-.8-6.3a6.53,6.53,0,0,0-2.4-.6c-1.8-.3-3.8-.1-4.4,1.9Z" transform="translate(-16.8 -14.3)" style="fill:#fff;fill-rule:evenodd;opacity:0.15000000596046448;isolation:isolate"/><path d="M129.9,81.6a.2.2,0,1,1-.4,0v-.1c0-.1.1-.1.2-.1h.1c.1.1.1.1.1.2Z" transform="translate(-16.8 -14.3)" style="fill-rule:evenodd"/><path d="M176.8,122.6a18.79,18.79,0,0,1-3.1,10.6,18.36,18.36,0,0,1-15.5,8.3H35.9a18.25,18.25,0,0,1-16.9-11,27,27,0,0,1-2-7.9,45.2,45.2,0,0,1-.2-5.2c.6-14.2,9.8-28.5,23.6-26.6h.1a24,24,0,0,1,.1-6c3.3-26.7,44.5-42.5,62.7-12.7a43.48,43.48,0,0,1,3.9,8.1c18.3-17.6,50.2.6,44.2,24.7h0c10.7-1.5,18,2.1,22.1,7.6a17.86,17.86,0,0,1,3.3,10.1Z" transform="translate(-16.8 -14.3)" style="fill:#ededed;fill-rule:evenodd"/><path d="M104.3,87.6c-.2,3.2-1.1,6.9-4,8.3-2.5,1.2-5.5.1-7.8-1.4s-4.4-3.5-7.1-4.3c-5.3-1.6-10.6,1.9-14.7,5.7s-8.1,8.2-13.5,8.9c-4.9.7-9.9-1.9-12.9-5.8a22.53,22.53,0,0,1-3.9-8.1h.1c-2.8-30.1,43.2-50.6,62.7-18.7a52.89,52.89,0,0,1,1.1,15.4Z" transform="translate(-16.8 -14.3)" style="fill:#fff;fill-rule:evenodd;opacity:0.5;isolation:isolate"/><path d="M57.2,109c-2.9,2.7-7.7,1.2-11.2,2.9-4.7,2.2-5.3,8.7-9,12.4-3.8,3.9-10.6,3.6-14.9.4l-.1-.1a12.92,12.92,0,0,1-4.6-12.8C19.8,99.6,28.3,89,40.3,90.7h.1a23.93,23.93,0,0,1,.1-6A23.62,23.62,0,0,1,57.4,97.2a16.34,16.34,0,0,1,1.7,5.7,7.32,7.32,0,0,1-1.9,6.1Z" transform="translate(-16.8 -14.3)" style="fill:#fff;fill-rule:evenodd;opacity:0.5;isolation:isolate"/><path d="M79.8,62.6a4.47,4.47,0,0,0-4-2.4c-4.1-.1-8.3.3-11.9,2.3a5.26,5.26,0,0,0-2.6,2.7,4.68,4.68,0,0,0-.2,1.7,5.15,5.15,0,0,0,1.1,3.4,4.06,4.06,0,0,0,3.1,1.2,6.28,6.28,0,0,0,3.2-1.2c.7-.5,1.3-1.1,2-1.6a11.6,11.6,0,0,1,4.3-1.8,8.79,8.79,0,0,0,3.6-1c1.3-.7,2-2.2,1.4-3.3Z" transform="translate(-16.8 -14.3)" style="fill:#fff;fill-rule:evenodd;opacity:0.8999999761581421;isolation:isolate"/><path d="M56.2,71.9a3.38,3.38,0,0,0-2,.6,9.26,9.26,0,0,0-2.6,3.6,4.85,4.85,0,0,0-.5,2.6,3,3,0,0,0,1.4,2.2,3.46,3.46,0,0,0,2,.2,6.85,6.85,0,0,0,5.1-4.2,4.19,4.19,0,0,0,.2-2.7h0A3,3,0,0,0,57,72l-.8-.1Z" transform="translate(-16.8 -14.3)" style="fill:#fff;fill-rule:evenodd;opacity:0.8999999761581421;isolation:isolate"/><path d="M35.9,95.5a12.82,12.82,0,0,0-8.4,4.9,18,18,0,0,0-3.5,8,3,3,0,0,0,.5,2.5,2.41,2.41,0,0,0,1.5.4,4.25,4.25,0,0,0,2.5-.3c1.2-.6,1.8-2.1,2.3-3.4,1-2.7,2.7-5.4,5.4-6.3a.9.9,0,0,1,.5-.1A3.79,3.79,0,0,0,39,99.4c1.1-2.3-1.2-4.2-3.1-3.9Z" transform="translate(-16.8 -14.3)" style="fill:#fff;fill-rule:evenodd;opacity:0.8999999761581421;isolation:isolate"/><path d="M111.2,82a6.83,6.83,0,0,0-1.8,2,2.87,2.87,0,0,0-.2,2.4c.7,1.9,2.9,2,4.4,1.2a28.76,28.76,0,0,0,3.4-2.7,17.9,17.9,0,0,1,6.3-2.8,5.58,5.58,0,0,0,2.1-.9,1.62,1.62,0,0,0,.6-2,2.12,2.12,0,0,0-2-1,15.19,15.19,0,0,0-7.6,1.1l-1.1.5a17.84,17.84,0,0,0-4.1,2.2Z" transform="translate(-16.8 -14.3)" style="fill:#fff;fill-rule:evenodd;opacity:0.8999999761581421;isolation:isolate"/><path d="M152.8,112.4a29.92,29.92,0,0,1,5.2.1,12.11,12.11,0,0,1,8,3.8c5.3,6.1,1.2,15.4-5.9,17.5a29.09,29.09,0,0,1-9.3.8c-4.1-.2-8.4-.7-11.9-3-4.7-3.1-6.3-10.2-2-14.3a15.76,15.76,0,0,1,6.2-3.1,43.8,43.8,0,0,1,9.7-1.8Z" transform="translate(-16.8 -14.3)" style="fill:#cbbebb;fill-rule:evenodd;opacity:0.20000000298023224;isolation:isolate"/><path d="M120,122a9.94,9.94,0,0,0-3.8,3,3.5,3.5,0,0,0-.1,3.3,6.11,6.11,0,0,0,1.3,2.2c1.8,1.7,6.1,1.7,8.1.4a6.6,6.6,0,0,0,2.8-5.8,5.61,5.61,0,0,0-2.6-3.6C124.2,120.7,122,121.1,120,122Z" transform="translate(-16.8 -14.3)" style="fill:#cbbebb;fill-rule:evenodd;opacity:0.20000000298023224;isolation:isolate"/><path d="M56.5,175.5c-.4.7-.7,1.4-1.1,2-4.1,6.4-10,7.7-15.1,5.2a10.59,10.59,0,0,1-6-8.4,16.32,16.32,0,0,1,1.9-8.9c2.5-5,8.5-7.5,12.8-8.7a5.52,5.52,0,0,1,6.7,3.4c1.7,4.1,3.3,10.4.8,15.4Z" transform="translate(-16.8 -14.3)" style="fill:#75beea;fill-rule:evenodd"/><path d="M53.5,176.6a1.47,1.47,0,0,1,.8,2.4c-4,5.1-9.3,5.9-14,3.6a10.34,10.34,0,0,1-5.8-7.1,1.49,1.49,0,0,1,1.1-1.8c3.5-.9,6.1,2.7,9.3,3.9s5.5-1.4,8.6-1Z" transform="translate(-16.8 -14.3)" style="fill:#fff;fill-rule:evenodd;opacity:0.20000000298023224;isolation:isolate"/><path d="M43.7,161.9a2.66,2.66,0,0,0-1.2.3,6.11,6.11,0,0,0-3,3.5c-.4,1.6,1,3.5,2.6,2.4,1.3-.9,3.5-2.6,3.4-4.5.1-1.2-.8-1.7-1.8-1.7Z" transform="translate(-16.8 -14.3)" style="fill:#fff;fill-rule:evenodd;opacity:0.5;isolation:isolate"/><path d="M40,177.5a2.44,2.44,0,0,0-.9-1.1c-.1,0-.1-.1-.2-.1a1.09,1.09,0,0,0-1.5.1,1.35,1.35,0,0,0,0,1.7,2.58,2.58,0,0,0,.9.9c.1.1.2.1.3.2H39a1.43,1.43,0,0,0,1.1-.5,1.17,1.17,0,0,0,0-1c0-.1,0-.2-.1-.2Z" transform="translate(-16.8 -14.3)" style="fill:#fff;fill-rule:evenodd;opacity:0.5;isolation:isolate"/><path d="M42.4,178.4a4,4,0,0,1,1.1,0,1.42,1.42,0,0,1,.6.2,1.08,1.08,0,0,1,.3.7.67.67,0,0,1-.5.7c-.5.1-1.2.3-1.7-.1a.86.86,0,0,1,.2-1.5Z" transform="translate(-16.8 -14.3)" style="fill:#fff;fill-rule:evenodd;opacity:0.5;isolation:isolate"/><path d="M99,179.4c-.3.5-.5,1-.8,1.5-3,4.7-7.3,5.6-11,3.8a7.79,7.79,0,0,1-4.4-6.1,11.81,11.81,0,0,1,1.4-6.5c1.8-3.6,6.2-5.5,9.3-6.4a4.06,4.06,0,0,1,4.9,2.5c1.3,3,2.4,7.6.6,11.2Z" transform="translate(-16.8 -14.3)" style="fill:#75beea;fill-rule:evenodd"/><path d="M96.8,180.3a1.11,1.11,0,0,1,.6,1.8c-2.9,3.7-6.8,4.3-10.2,2.6a7.56,7.56,0,0,1-4.2-5.2,1.11,1.11,0,0,1,.8-1.3c2.6-.6,4.4,2,6.8,2.8s4-1.1,6.2-.7Z" transform="translate(-16.8 -14.3)" style="fill:#fff;fill-rule:evenodd;opacity:0.20000000298023224;isolation:isolate"/><path d="M89.7,169.5a2.92,2.92,0,0,0-.9.2,4.48,4.48,0,0,0-2.2,2.5c-.3,1.2.7,2.5,1.9,1.7,1-.7,2.5-1.9,2.5-3.3a1.16,1.16,0,0,0-1.3-1.1Z" transform="translate(-16.8 -14.3)" style="fill:#fff;fill-rule:evenodd;opacity:0.5;isolation:isolate"/><path d="M87.8,181.3a2.44,2.44,0,0,0-.9-1.1c-.1-.1-.1-.1-.2-.1a1.09,1.09,0,0,0-1.5.1,1.51,1.51,0,0,0-.1,1.7,2.58,2.58,0,0,0,.9.9c.1.1.2.1.3.2h.4a1.43,1.43,0,0,0,1.1-.5,1.17,1.17,0,0,0,0-1,.14.14,0,0,0,0-.2Z" transform="translate(-16.8 -14.3)" style="fill:#fff;fill-rule:evenodd;opacity:0.5;isolation:isolate"/><path d="M148,175.5c-.4.7-.7,1.4-1.1,2-4.1,6.4-10,7.7-15.1,5.2a10.59,10.59,0,0,1-6-8.4,16.32,16.32,0,0,1,1.9-8.9c2.5-5,8.5-7.5,12.8-8.7a5.52,5.52,0,0,1,6.7,3.4c1.7,4.1,3.3,10.4.8,15.4Z" transform="translate(-16.8 -14.3)" style="fill:#75beea;fill-rule:evenodd"/><path d="M145,176.6a1.5,1.5,0,0,1,.9,2.4c-4,5.1-9.3,5.9-14,3.6a10.34,10.34,0,0,1-5.8-7.1,1.49,1.49,0,0,1,1.1-1.8c3.5-.9,6.1,2.7,9.3,3.9s5.4-1.4,8.5-1Z" transform="translate(-16.8 -14.3)" style="fill:#fff;fill-rule:evenodd;opacity:0.20000000298023224;isolation:isolate"/><path d="M135.3,161.9a2.66,2.66,0,0,0-1.2.3,6.11,6.11,0,0,0-3,3.5c-.4,1.6,1,3.5,2.6,2.4,1.3-.9,3.5-2.6,3.4-4.5a1.65,1.65,0,0,0-1.8-1.7Z" transform="translate(-16.8 -14.3)" style="fill:#fff;fill-rule:evenodd;opacity:0.5;isolation:isolate"/><path d="M131.6,177.5a2.44,2.44,0,0,0-.9-1.1c-.1,0-.1-.1-.2-.1a1.09,1.09,0,0,0-1.5.1,1.35,1.35,0,0,0,0,1.7,2.58,2.58,0,0,0,.9.9c.1.1.2.1.3.2h.4a1.43,1.43,0,0,0,1.1-.5,1.17,1.17,0,0,0,0-1,.31.31,0,0,1-.1-.2Z" transform="translate(-16.8 -14.3)" style="fill:#fff;fill-rule:evenodd;opacity:0.5;isolation:isolate"/><path d="M133.9,178.4a4.05,4.05,0,0,1,1.1,0,1.42,1.42,0,0,1,.6.2,1.08,1.08,0,0,1,.3.7.67.67,0,0,1-.5.7c-.5.1-1.2.3-1.7-.1a.86.86,0,0,1,.2-1.5Z" transform="translate(-16.8 -14.3)" style="fill:#fff;fill-rule:evenodd;opacity:0.5;isolation:isolate"/></g></svg>