<svg id="Vintagio_Design" data-name="Vintagio Design" xmlns="http://www.w3.org/2000/svg" viewBox="0 0 186.52 199.86"><title>rain</title><g id="c"><path d="M177.8,54.2H72.4a8.88,8.88,0,0,1-8.8-9.8v-.2A24.55,24.55,0,0,1,85.5,22.9a23.76,23.76,0,0,1,10,1c.1-.2.1-.3.2-.5a32.67,32.67,0,0,1,30-19.8,31.71,31.71,0,0,1,8.8,1.2,32.63,32.63,0,0,1,22.2,21.4,21.68,21.68,0,0,1,10.5-1.4,22,22,0,0,1,19.3,19.1c0,.3.1.7.1,1a8.81,8.81,0,0,1-8.8,9.3Z" transform="translate(-0.1 -0.11)" style="fill:#cbbebb;fill-rule:evenodd"/><path d="M137.1,19.1c-2.6,4.4-8.2,6-12.5,8.8-6,3.9-10.4,10.8-17.5,11.9a8.69,8.69,0,0,1-5.7-.9,9.88,9.88,0,0,1-4.1-5.3,25.76,25.76,0,0,1-1.6-7.3A10.77,10.77,0,0,1,96.8,21,32.48,32.48,0,0,1,125.6,3.6a21.75,21.75,0,0,1,2.5.1c5.8.4,10.6,5.2,10.2,11.1a8.21,8.21,0,0,1-1.2,4.3Z" transform="translate(-0.1 -0.11)" style="fill:#fff;fill-rule:evenodd;opacity:0.20000000298023224;isolation:isolate"/><path d="M124.6,9.2h-1.7a16.88,16.88,0,0,0-5.9,1.3,25,25,0,0,0-3.5,2.1c-1.6,1.3-3.2,3.1-2.6,5.2a3.33,3.33,0,0,0,2.3,2.3c1.7.4,3-.6,4.2-1.5a40.22,40.22,0,0,1,4.7-3.4,25.57,25.57,0,0,1,2.4-1.1c.8-.3,1.7-.1,2.3-.7a1.87,1.87,0,0,0,.5-1.4,3.41,3.41,0,0,0-.7-2.2,2.2,2.2,0,0,0-1.6-.5.76.76,0,0,0-.4-.1Z" transform="translate(-0.1 -0.11)" style="fill:#fff;fill-rule:evenodd;opacity:0.30000001192092896;isolation:isolate"/><path d="M107.4,20.2a1.93,1.93,0,0,1,1,.3,3.55,3.55,0,0,1,1.4,2.5,3.13,3.13,0,0,1-1.9,3,3.59,3.59,0,0,1-1.8.2,2.09,2.09,0,0,1-1.3-.7c-.9-1-.5-2.8.1-3.8a3.52,3.52,0,0,1,2.5-1.5Z" transform="translate(-0.1 -0.11)" style="fill:#fff;fill-rule:evenodd;opacity:0.30000001192092896;isolation:isolate"/><path d="M89.9,28.5h0a17.86,17.86,0,0,0-9.1,2,5.7,5.7,0,0,0-2.6,2.9c-.4,1.1-.7,2.9.6,3.5a2.26,2.26,0,0,0,1.6.2,9.28,9.28,0,0,0,3.5-1.6,10.1,10.1,0,0,1,4.6-1.8,19.42,19.42,0,0,0,2.4-.2,2.31,2.31,0,0,0,1.6-2.8,2.77,2.77,0,0,0-2.6-2.2Z" transform="translate(-0.1 -0.11)" style="fill:#fff;fill-rule:evenodd;opacity:0.30000001192092896;isolation:isolate"/><path d="M160.7,66.9a19.35,19.35,0,0,1-3.1,10.7,18.36,18.36,0,0,1-15.5,8.3H19.2a18.31,18.31,0,0,1-16.9-11,26.86,26.86,0,0,1-2-8,45.2,45.2,0,0,1-.2-5.2C.7,47.4,9.9,33.1,23.8,35h.1a29.82,29.82,0,0,1,.1-6C27.3,2.2,68.7-13.6,86.9,16.3a43.48,43.48,0,0,1,3.9,8.1c18.4-17.7,50.5.6,44.4,24.8h0c10.7-1.5,18.1,2.1,22.1,7.6a16.83,16.83,0,0,1,3.4,10.1Z" transform="translate(-0.1 -0.11)" style="fill:#ededed;fill-rule:evenodd"/><path d="M87.9,31.7c-.2,3.2-1.1,6.9-4,8.3-2.5,1.2-5.5.1-7.9-1.4s-4.4-3.5-7.1-4.3c-5.3-1.6-10.7,1.9-14.7,5.7s-8.1,8.2-13.6,9c-4.9.7-9.9-1.9-13-5.8a22.53,22.53,0,0,1-3.9-8.1h.1C21,4.8,67.2-15.8,86.8,16.3A52.89,52.89,0,0,1,87.9,31.7Z" transform="translate(-0.1 -0.11)" style="fill:#fff;fill-rule:evenodd;opacity:0.5;isolation:isolate"/><path d="M40.6,53.2c-2.9,2.7-7.7,1.3-11.2,2.9-4.7,2.2-5.3,8.8-9,12.4-3.9,3.9-10.6,3.7-15,.4l-.1.1A12.79,12.79,0,0,1,.7,56.2C3.1,44,11.7,33.3,23.7,35h0a29.82,29.82,0,0,1,.1-6A23.68,23.68,0,0,1,40.7,41.5a16.34,16.34,0,0,1,1.7,5.7,6.85,6.85,0,0,1-1.8,6Z" transform="translate(-0.1 -0.11)" style="fill:#fff;fill-rule:evenodd;opacity:0.5;isolation:isolate"/><path d="M63.2,6.6a4.47,4.47,0,0,0-4-2.4c-4.2-.1-8.4.3-11.9,2.3a5.26,5.26,0,0,0-2.6,2.7,4.68,4.68,0,0,0-.2,1.7,5.15,5.15,0,0,0,1.1,3.4,4.06,4.06,0,0,0,3.1,1.2,6.63,6.63,0,0,0,3.2-1.2c.7-.5,1.3-1.1,2.1-1.6a11.6,11.6,0,0,1,4.3-1.8,9.72,9.72,0,0,0,3.7-1c1.1-.7,1.9-2.2,1.2-3.3Z" transform="translate(-0.1 -0.11)" style="fill:#fff;fill-rule:evenodd;opacity:0.8999999761581421;isolation:isolate"/><path d="M39.5,16a2.88,2.88,0,0,0-2,.7,9.51,9.51,0,0,0-2.7,3.6,4,4,0,0,0-.4,2.6,2.8,2.8,0,0,0,1.4,2.2,3.71,3.71,0,0,0,2.1.2A6.85,6.85,0,0,0,43,21.1a4.19,4.19,0,0,0,.2-2.7h0a3,3,0,0,0-2.8-2.2l-.9-.2Z" transform="translate(-0.1 -0.11)" style="fill:#fff;fill-rule:evenodd;opacity:0.8999999761581421;isolation:isolate"/><path d="M19.1,39.7a13.28,13.28,0,0,0-8.5,4.9,18,18,0,0,0-3.5,8,3,3,0,0,0,.5,2.5,2.6,2.6,0,0,0,1.5.4,4.25,4.25,0,0,0,2.5-.3c1.2-.6,1.8-2.1,2.3-3.4,1-2.7,2.7-5.4,5.5-6.3.2,0,.3-.1.5-.1a3.79,3.79,0,0,0,2.3-1.8c1.2-2.3-1.1-4.3-3.1-3.9Z" transform="translate(-0.1 -0.11)" style="fill:#fff;fill-rule:evenodd;opacity:0.8999999761581421;isolation:isolate"/><path d="M94.8,26.1a6.83,6.83,0,0,0-1.8,2,2.87,2.87,0,0,0-.2,2.4c.7,1.9,2.9,2,4.5,1.2a22.41,22.41,0,0,0,3.4-2.7,18.38,18.38,0,0,1,6.4-2.8,5.58,5.58,0,0,0,2.1-.9,1.75,1.75,0,0,0,.6-2,2.4,2.4,0,0,0-2-1.1,15.19,15.19,0,0,0-7.6,1.1l-1.2.5a16.86,16.86,0,0,0-4.2,2.3Z" transform="translate(-0.1 -0.11)" style="fill:#fff;fill-rule:evenodd;opacity:0.8999999761581421;isolation:isolate"/><path d="M136.6,56.6a29.92,29.92,0,0,1,5.2.1,11.9,11.9,0,0,1,8,3.8c5.3,6.2,1.2,15.4-6,17.6a29.46,29.46,0,0,1-9.4.8c-4.1-.2-8.5-.7-12-3-4.7-3.1-6.3-10.3-2-14.4a15.76,15.76,0,0,1,6.2-3.1,48.83,48.83,0,0,1,10-1.8Z" transform="translate(-0.1 -0.11)" style="fill:#cbbebb;fill-rule:evenodd;opacity:0.20000000298023224;isolation:isolate"/><path d="M103.7,66.3a11.21,11.21,0,0,0-3.9,3,3.5,3.5,0,0,0-.1,3.3,6.11,6.11,0,0,0,1.3,2.2c1.9,1.7,6.1,1.7,8.1.4a6.6,6.6,0,0,0,2.8-5.8,5.61,5.61,0,0,0-2.6-3.6c-1.5-.8-3.6-.5-5.6.5Z" transform="translate(-0.1 -0.11)" style="fill:#cbbebb;fill-rule:evenodd;opacity:0.20000000298023224;isolation:isolate"/><path d="M37,115.3a11.78,11.78,0,0,1-1.1,1.9c-4,6.3-9.7,7.5-14.7,5.1a10.27,10.27,0,0,1-5.8-8.2,15.37,15.37,0,0,1,1.9-8.6c2.4-4.9,8.2-7.3,12.4-8.5a5.44,5.44,0,0,1,6.6,3.3c1.6,4,3.1,10.2.7,15Z" transform="translate(-0.1 -0.11)" style="fill:#75beea;fill-rule:evenodd"/><path d="M34,116.5a1.47,1.47,0,0,1,.8,2.4c-3.9,4.9-9.1,5.8-13.6,3.5a10,10,0,0,1-5.6-6.9,1.4,1.4,0,0,1,1-1.7c3.4-.8,5.9,2.7,9.1,3.8,3.2.9,5.4-1.6,8.3-1.1Z" transform="translate(-0.1 -0.11)" style="fill:#fff;fill-rule:evenodd;opacity:0.20000000298023224;isolation:isolate"/><path d="M24.6,102.1a2.66,2.66,0,0,0-1.2.3,5.44,5.44,0,0,0-2.9,3.4c-.4,1.6.9,3.4,2.5,2.3,1.3-.9,3.4-2.6,3.3-4.4a1.55,1.55,0,0,0-1.7-1.6Z" transform="translate(-0.1 -0.11)" style="fill:#fff;fill-rule:evenodd;opacity:0.5;isolation:isolate"/><path d="M21,117.2a4.44,4.44,0,0,0-.8-1.1c-.1,0-.1-.1-.2-.1a1.09,1.09,0,0,0-1.5.1,1.51,1.51,0,0,0-.1,1.7,3.82,3.82,0,0,0,.9.9c.1.1.2.1.3.2a.3.3,0,0,0,.4,0,1.43,1.43,0,0,0,1.1-.5,1,1,0,0,0,0-.9c-.1-.2-.1-.2-.1-.3Z" transform="translate(-0.1 -0.11)" style="fill:#fff;fill-rule:evenodd;opacity:0.5;isolation:isolate"/><path d="M23.2,118.1a4,4,0,0,1,1.1,0,1.42,1.42,0,0,1,.6.2.91.91,0,0,1,.3.7c0,.4-.2.6-.5.6-.5.1-1.2.3-1.6-.1a.8.8,0,0,1,.1-1.4Z" transform="translate(-0.1 -0.11)" style="fill:#fff;fill-rule:evenodd;opacity:0.5;isolation:isolate"/><path d="M78.4,119.1a6.38,6.38,0,0,1-.8,1.4c-2.9,4.6-7.1,5.5-10.7,3.7a7.21,7.21,0,0,1-4.2-6,11.18,11.18,0,0,1,1.4-6.3c1.8-3.5,6-5.4,9.1-6.2a4,4,0,0,1,4.8,2.4c1,3,2.2,7.5.4,11Z" transform="translate(-0.1 -0.11)" style="fill:#75beea;fill-rule:evenodd"/><path d="M76.2,120a1,1,0,0,1,.6,1.7c-2.8,3.6-6.6,4.2-9.9,2.6a7.52,7.52,0,0,1-4.1-5.1,1,1,0,0,1,.8-1.2c2.5-.6,4.3,1.9,6.6,2.8,2.2.7,3.8-1.2,6-.8Z" transform="translate(-0.1 -0.11)" style="fill:#fff;fill-rule:evenodd;opacity:0.20000000298023224;isolation:isolate"/><path d="M69.3,109.5a2.92,2.92,0,0,0-.9.2,4,4,0,0,0-2.1,2.5c-.3,1.1.7,2.5,1.9,1.7.9-.7,2.5-1.9,2.4-3.2,0-.9-.6-1.2-1.3-1.2Z" transform="translate(-0.1 -0.11)" style="fill:#fff;fill-rule:evenodd;opacity:0.5;isolation:isolate"/><path d="M67.5,121a4.44,4.44,0,0,0-.8-1.1c-.1,0-.1-.1-.2-.1a1.09,1.09,0,0,0-1.5.1,1.51,1.51,0,0,0,0,1.7,2.58,2.58,0,0,0,.9.9c.1.1.2.1.3.2h.4a1.43,1.43,0,0,0,1.1-.5,1,1,0,0,0,0-.9C67.5,121.1,67.5,121,67.5,121Z" transform="translate(-0.1 -0.11)" style="fill:#fff;fill-rule:evenodd;opacity:0.5;isolation:isolate"/><path d="M126.1,115.3a11.78,11.78,0,0,1-1.1,1.9c-4,6.3-9.7,7.5-14.7,5.1a10.27,10.27,0,0,1-5.8-8.2,15.37,15.37,0,0,1,1.9-8.6c2.4-4.9,8.2-7.3,12.4-8.5a5.44,5.44,0,0,1,6.6,3.3c1.5,4,3.1,10.2.7,15Z" transform="translate(-0.1 -0.11)" style="fill:#75beea;fill-rule:evenodd"/><path d="M123.1,116.5a1.47,1.47,0,0,1,.8,2.4c-3.9,4.9-9.1,5.8-13.6,3.5a10,10,0,0,1-5.6-6.9,1.4,1.4,0,0,1,1-1.7c3.4-.8,5.9,2.7,9.1,3.8,3.1.9,5.3-1.6,8.3-1.1Z" transform="translate(-0.1 -0.11)" style="fill:#fff;fill-rule:evenodd;opacity:0.20000000298023224;isolation:isolate"/><path d="M113.7,102.1a2.66,2.66,0,0,0-1.2.3,5.44,5.44,0,0,0-2.9,3.4c-.4,1.6.9,3.4,2.5,2.3,1.3-.9,3.4-2.6,3.3-4.4a1.55,1.55,0,0,0-1.7-1.6Z" transform="translate(-0.1 -0.11)" style="fill:#fff;fill-rule:evenodd;opacity:0.5;isolation:isolate"/><path d="M110,117.2a4.44,4.44,0,0,0-.8-1.1c-.1,0-.1-.1-.2-.1a1.09,1.09,0,0,0-1.5.1,1.51,1.51,0,0,0-.1,1.7,3.82,3.82,0,0,0,.9.9c.1.1.2.1.3.2a.3.3,0,0,0,.4,0,1.43,1.43,0,0,0,1.1-.5,1,1,0,0,0,0-.9c0-.2,0-.2-.1-.3Z" transform="translate(-0.1 -0.11)" style="fill:#fff;fill-rule:evenodd;opacity:0.5;isolation:isolate"/><path d="M112.3,118.1a4,4,0,0,1,1.1,0,1.42,1.42,0,0,1,.6.2.91.91,0,0,1,.3.7c0,.4-.2.6-.5.6-.5.1-1.2.3-1.6-.1a.75.75,0,0,1,.1-1.4Z" transform="translate(-0.1 -0.11)" style="fill:#fff;fill-rule:evenodd;opacity:0.5;isolation:isolate"/><path d="M50.5,159.8a11.78,11.78,0,0,1-1.1,1.9c-3.8,6-9.4,7.3-14.2,4.9a9.93,9.93,0,0,1-5.6-7.9,15.1,15.1,0,0,1,1.8-8.3c2.3-4.7,8-7.1,12-8.2a5.22,5.22,0,0,1,6.3,3.1C51.3,149.2,52.8,155.1,50.5,159.8Z" transform="translate(-0.1 -0.11)" style="fill:#75beea;fill-rule:evenodd"/><path d="M47.6,160.9a1.42,1.42,0,0,1,.8,2.3c-3.8,4.8-8.8,5.6-13.1,3.4a9.59,9.59,0,0,1-5.4-6.7,1.45,1.45,0,0,1,1-1.7c3.3-.8,5.7,2.6,8.8,3.6,2.9,1.1,5-1.3,7.9-.9Z" transform="translate(-0.1 -0.11)" style="fill:#fff;fill-rule:evenodd;opacity:0.20000000298023224;isolation:isolate"/><path d="M38.4,147a2,2,0,0,0-1.1.3,5.41,5.41,0,0,0-2.8,3.3c-.4,1.5.9,3.3,2.4,2.2,1.3-.9,3.3-2.5,3.2-4.2.1-1.1-.8-1.5-1.7-1.6Z" transform="translate(-0.1 -0.11)" style="fill:#fff;fill-rule:evenodd;opacity:0.5;isolation:isolate"/><path d="M35,161.7a2,2,0,0,0-.8-1c-.1,0-.1-.1-.2-.1-.5-.3-1-.4-1.4.1a1.35,1.35,0,0,0,0,1.6,3,3,0,0,0,.8.8c.1.1.2.1.3.2a.3.3,0,0,0,.4,0,1.23,1.23,0,0,0,1-.5,1.39,1.39,0,0,0,0-.9.31.31,0,0,1-.1-.2Z" transform="translate(-0.1 -0.11)" style="fill:#fff;fill-rule:evenodd;opacity:0.5;isolation:isolate"/><path d="M37.1,162.5a4,4,0,0,1,1.1,0,1.42,1.42,0,0,1,.6.2c.2.2.2.4.3.7a.63.63,0,0,1-.5.6c-.5.1-1.2.3-1.6-.1a.8.8,0,0,1,.1-1.4Z" transform="translate(-0.1 -0.11)" style="fill:#fff;fill-rule:evenodd;opacity:0.5;isolation:isolate"/><path d="M97.7,154.3a16.18,16.18,0,0,1-1,1.8c-3.6,5.7-8.9,6.9-13.4,4.6a9.13,9.13,0,0,1-5.3-7.5,14.36,14.36,0,0,1,1.7-7.9c2.2-4.5,7.5-6.7,11.4-7.8a5,5,0,0,1,6,3c1.3,3.8,2.8,9.4.6,13.8Z" transform="translate(-0.1 -0.11)" style="fill:#75beea;fill-rule:evenodd"/><path d="M94.9,155.4a1.39,1.39,0,0,1,.8,2.2c-3.5,4.5-8.3,5.3-12.4,3.2a9.2,9.2,0,0,1-5.1-6.4,1.47,1.47,0,0,1,.9-1.6c3.1-.8,5.4,2.4,8.3,3.4s4.8-1.3,7.5-.8Z" transform="translate(-0.1 -0.11)" style="fill:#fff;fill-rule:evenodd;opacity:0.20000000298023224;isolation:isolate"/><path d="M86.3,142.2a2.28,2.28,0,0,0-1.1.3,5.5,5.5,0,0,0-2.7,3.1c-.3,1.4.9,3.1,2.3,2.1,1.2-.8,3.1-2.4,3.1-4a1.49,1.49,0,0,0-1.6-1.5Z" transform="translate(-0.1 -0.11)" style="fill:#fff;fill-rule:evenodd;opacity:0.5;isolation:isolate"/><path d="M83,156.1a2,2,0,0,0-.8-1c-.1,0-.1-.1-.2-.1a1,1,0,0,0-1.4.1,1.2,1.2,0,0,0,0,1.5,3,3,0,0,0,.8.8.37.37,0,0,0,.3.1c.1,0,.3.1.4,0a1,1,0,0,0,1-.5,1.1,1.1,0,0,0,0-.8.1.1,0,0,0-.1-.1Z" transform="translate(-0.1 -0.11)" style="fill:#fff;fill-rule:evenodd;opacity:0.5;isolation:isolate"/><path d="M85.1,156.9a3.35,3.35,0,0,1,1,0,.76.76,0,0,1,.5.2c.2.1.2.4.2.6a.55.55,0,0,1-.4.6c-.4.1-1.1.3-1.5-.1a.73.73,0,0,1,.2-1.3Z" transform="translate(-0.1 -0.11)" style="fill:#fff;fill-rule:evenodd;opacity:0.5;isolation:isolate"/><path d="M67.5,194a6.38,6.38,0,0,1-.8,1.4c-2.9,4.6-7.1,5.5-10.7,3.7a7.21,7.21,0,0,1-4.2-6,11.18,11.18,0,0,1,1.4-6.3c1.8-3.5,6-5.3,9.1-6.2a4,4,0,0,1,4.8,2.4c1,3,2.1,7.5.4,11Z" transform="translate(-0.1 -0.11)" style="fill:#75beea;fill-rule:evenodd"/><path d="M65.3,194.8a1,1,0,0,1,.6,1.7c-2.8,3.6-6.6,4.2-9.9,2.6a7.31,7.31,0,0,1-4.1-5.1,1,1,0,0,1,.8-1.2c2.5-.6,4.3,1.9,6.6,2.8,2.2.7,3.8-1.1,6-.8Z" transform="translate(-0.1 -0.11)" style="fill:#fff;fill-rule:evenodd;opacity:0.20000000298023224;isolation:isolate"/><path d="M58.4,184.4a2.92,2.92,0,0,0-.9.2,4,4,0,0,0-2.1,2.5c-.3,1.1.7,2.5,1.9,1.7.9-.7,2.5-1.9,2.4-3.2,0-.9-.6-1.2-1.3-1.2Z" transform="translate(-0.1 -0.11)" style="fill:#fff;fill-rule:evenodd;opacity:0.5;isolation:isolate"/><path d="M56.6,195.8a4.44,4.44,0,0,0-.8-1.1c-.1,0-.1-.1-.2-.1a1.09,1.09,0,0,0-1.5.1,1.51,1.51,0,0,0-.1,1.7,2.58,2.58,0,0,0,.9.9c.1.1.2.1.3.2a.3.3,0,0,0,.4,0,1.43,1.43,0,0,0,1.1-.5c.2-.3.1-.6,0-1-.1-.1-.1-.1-.1-.2Z" transform="translate(-0.1 -0.11)" style="fill:#fff;fill-rule:evenodd;opacity:0.5;isolation:isolate"/><path d="M17.4,194a6.38,6.38,0,0,1-.8,1.4c-2.9,4.6-7.1,5.5-10.7,3.7a7.21,7.21,0,0,1-4.2-6,11.18,11.18,0,0,1,1.4-6.3c1.8-3.5,6-5.3,9.1-6.2A4,4,0,0,1,17,183c1,3,2.2,7.5.4,11Z" transform="translate(-0.1 -0.11)" style="fill:#75beea;fill-rule:evenodd"/><path d="M15.2,194.8a1,1,0,0,1,.6,1.7c-2.8,3.6-6.6,4.2-9.9,2.6A7.31,7.31,0,0,1,1.8,194a1,1,0,0,1,.8-1.2c2.5-.6,4.3,1.9,6.6,2.8,2.2.7,3.8-1.1,6-.8Z" transform="translate(-0.1 -0.11)" style="fill:#fff;fill-rule:evenodd;opacity:0.20000000298023224;isolation:isolate"/><path d="M8.3,184.4a2.92,2.92,0,0,0-.9.2,4,4,0,0,0-2.1,2.5c-.3,1.1.7,2.5,1.9,1.7.9-.7,2.5-1.9,2.4-3.2,0-.9-.6-1.2-1.3-1.2Z" transform="translate(-0.1 -0.11)" style="fill:#fff;fill-rule:evenodd;opacity:0.5;isolation:isolate"/><path d="M6.5,195.8a4.44,4.44,0,0,0-.8-1.1c-.1,0-.1-.1-.2-.1a1.09,1.09,0,0,0-1.5.1,1.51,1.51,0,0,0,0,1.7,2.58,2.58,0,0,0,.9.9c.1.1.2.1.3.2a.3.3,0,0,0,.4,0,1.43,1.43,0,0,0,1.1-.5c.2-.3.1-.6,0-1-.2-.1-.2-.1-.2-.2Z" transform="translate(-0.1 -0.11)" style="fill:#fff;fill-rule:evenodd;opacity:0.5;isolation:isolate"/></g></svg>