<svg id="Vintagio_Design" data-name="Vintagio Design" xmlns="http://www.w3.org/2000/svg" viewBox="0 0 182.72 199.99"><title>scattered-thunderstorms</title><g id="c"><path d="M175,70.6H83a7.72,7.72,0,0,1-7.7-8.5v-.2A21.47,21.47,0,0,1,94.4,43.3a20.87,20.87,0,0,1,8.7.9c.1-.1.1-.3.2-.4a28.35,28.35,0,0,1,26.2-17.3,27.55,27.55,0,0,1,7.7,1.1,28.63,28.63,0,0,1,19.4,18.7,19.14,19.14,0,0,1,26,15.5c0,.3.1.6.1.9a7.62,7.62,0,0,1-7.7,7.9Z" transform="translate(0 0.01)" style="fill:#cbbebb;fill-rule:evenodd"/><path d="M139.5,39.9c-2.3,3.9-7.1,5.2-10.9,7.7C123.4,51,119.5,57,113.3,58a7.25,7.25,0,0,1-5-.8,9.12,9.12,0,0,1-3.6-4.6,22.87,22.87,0,0,1-1.4-6.4,9.12,9.12,0,0,1,1-4.6,28.43,28.43,0,0,1,25.2-15.2,14.77,14.77,0,0,1,2.1.1,9.41,9.41,0,0,1,8.9,9.7,7.36,7.36,0,0,1-1,3.7Z" transform="translate(0 0.01)" style="fill:#fff;fill-rule:evenodd;opacity:0.20000000298023224;isolation:isolate"/><path d="M128.5,31.2H127a13.19,13.19,0,0,0-5.2,1.2,14.92,14.92,0,0,0-3,1.8c-1.4,1.1-2.8,2.8-2.3,4.6a2.88,2.88,0,0,0,2,2,4.39,4.39,0,0,0,3.6-1.3,43.3,43.3,0,0,1,4.1-3,20,20,0,0,1,2.1-1c.7-.2,1.5-.1,2-.6a1.46,1.46,0,0,0,.5-1.2,2.56,2.56,0,0,0-.6-1.9,2.39,2.39,0,0,0-1.4-.5.37.37,0,0,0-.3-.1Z" transform="translate(0 0.01)" style="fill:#fff;fill-rule:evenodd;opacity:0.30000001192092896;isolation:isolate"/><path d="M113.6,40.8a1.61,1.61,0,0,1,.9.3,3.84,3.84,0,0,1,1.3,2.2,2.63,2.63,0,0,1-1.6,2.6,2.85,2.85,0,0,1-1.6.2,2.38,2.38,0,0,1-1.1-.6c-.7-.9-.4-2.4.1-3.4A2.87,2.87,0,0,1,113.6,40.8Z" transform="translate(0 0.01)" style="fill:#fff;fill-rule:evenodd;opacity:0.30000001192092896;isolation:isolate"/><path d="M98.3,48.1h0a13.94,13.94,0,0,0-4.1.3,10.26,10.26,0,0,0-3.8,1.4,5.08,5.08,0,0,0-2.3,2.5c-.4,1-.6,2.5.5,3.1a3.4,3.4,0,0,0,1.4.2,9.58,9.58,0,0,0,3.1-1.4,8.63,8.63,0,0,1,4.1-1.6,7.49,7.49,0,0,0,2.1-.2,2,2,0,0,0,1.4-2.4A2.91,2.91,0,0,0,98.3,48.1Z" transform="translate(0 0.01)" style="fill:#fff;fill-rule:evenodd;opacity:0.30000001192092896;isolation:isolate"/><path d="M64.9,20.1A20.68,20.68,0,0,0,55.7,3.5,20,20,0,0,0,44.9.1,20.59,20.59,0,0,0,26.3,10.7a17.2,17.2,0,0,1-8.5,7.7,16.2,16.2,0,0,1-6.6,1.3h-.5A10.71,10.71,0,0,0,0,30.4,10.91,10.91,0,0,0,3.1,38a10.73,10.73,0,0,0,7.6,3.1H44.4a20.51,20.51,0,0,0,20.5-21Z" transform="translate(0 0.01)" style="fill:#cbbebb;fill-rule:evenodd"/><path d="M56.6,11.7c-1.5,2-4.2,2.3-6.6,2.5-4,.3-8.4.9-11.2,3.7-1.7,1.7-2.6,3.9-4,5.8a11.44,11.44,0,0,1-7.3,4.4A8.33,8.33,0,0,1,19.8,25a3.13,3.13,0,0,1-.5-1,6.38,6.38,0,0,1,2.1-7.6,18.38,18.38,0,0,0,5-5.7A20.68,20.68,0,0,1,45,0a20.26,20.26,0,0,1,7.8,1.8,8.29,8.29,0,0,1,4.7,5.9,5.69,5.69,0,0,1-.9,4Z" transform="translate(0 0.01)" style="fill:#fff;fill-rule:evenodd;opacity:0.20000000298023224;isolation:isolate"/><path d="M47.8,3.4c-1.4-1.4-5.2-1.1-6.7-.6-.9.4-1.9,1-2.1,2a2,2,0,0,0,1.4,2.3c1.1.2,2.1-.4,3.1-.7A22,22,0,0,1,47.1,6a2.2,2.2,0,0,0,.8-.1c.9-.3.5-1.9-.1-2.5Z" transform="translate(0 0.01)" style="fill:#fff;fill-rule:evenodd;opacity:0.30000001192092896;isolation:isolate"/><path d="M30.9,12.2a1.09,1.09,0,0,0,.4-1.2,4.05,4.05,0,0,0-.5-.9,2.09,2.09,0,0,0-.6-.4A1.79,1.79,0,0,0,28,11.2c-.1.6.6,1.4,1.2,1.6a1.92,1.92,0,0,0,1.7-.6Z" transform="translate(0 0.01)" style="fill:#fff;fill-rule:evenodd;opacity:0.30000001192092896;isolation:isolate"/><path d="M151.4,81.6a15.45,15.45,0,0,1-2.8,9.3A16.08,16.08,0,0,1,135,98.2H27.6a16,16,0,0,1-14.8-9.6,26.67,26.67,0,0,1-1.8-7,34.64,34.64,0,0,1-.2-4.6c.5-12.5,8.6-25,20.7-23.3h0a23.38,23.38,0,0,1,.1-5.3c2.9-23.4,39-37.3,55-11.1A42.51,42.51,0,0,1,90,44.4c16.1-15.5,44.1.5,38.8,21.7h0c9.4-1.3,15.8,1.8,19.4,6.7a14.67,14.67,0,0,1,3.2,8.8Z" transform="translate(0 0.01)" style="fill:#cbbebb;fill-rule:evenodd"/><path d="M87.7,50.9c-.2,2.8-1,6.1-3.5,7.3-2.2,1-4.8.1-6.9-1.2s-3.9-3.1-6.2-3.8c-4.6-1.4-9.3,1.7-12.9,5S51.1,65.4,46.3,66c-4.3.6-8.6-1.7-11.3-5.1a20.29,20.29,0,0,1-3.4-7.1h0C29.2,27.4,69.5,9.4,86.7,37.4A47.09,47.09,0,0,1,87.7,50.9Z" transform="translate(0 0.01)" style="fill:#fff;fill-rule:evenodd;opacity:0.20000000298023224;isolation:isolate"/><path d="M46.4,69.8c-2.5,2.4-6.7,1.1-9.8,2.6-4.1,2-4.7,7.7-7.9,10.9-3.4,3.4-9.3,3.2-13.1.3l-.1-.1a11.14,11.14,0,0,1-4-11.2c2.1-10.7,9.6-20,20.1-18.5h0a23.38,23.38,0,0,1,.1-5.3A20.57,20.57,0,0,1,46.5,59.4a15.16,15.16,0,0,1,1.5,5,6.52,6.52,0,0,1-1.6,5.4Z" transform="translate(0 0.01)" style="fill:#fff;fill-rule:evenodd;opacity:0.20000000298023224;isolation:isolate"/><path d="M66.2,29a3.92,3.92,0,0,0-3.5-2.1c-3.6-.1-7.3.3-10.4,2A4.5,4.5,0,0,0,50,31.3a3.89,3.89,0,0,0-.2,1.5,4.1,4.1,0,0,0,1,2.9,3.39,3.39,0,0,0,2.7,1,5.58,5.58,0,0,0,2.8-1c.6-.4,1.2-1,1.8-1.4a9.92,9.92,0,0,1,3.8-1.6,11.56,11.56,0,0,0,3.2-.8A2.4,2.4,0,0,0,66.2,29Z" transform="translate(0 0.01)" style="fill:#fff;fill-rule:evenodd;opacity:0.30000001192092896;isolation:isolate"/><path d="M45.4,37.2a2.79,2.79,0,0,0-1.8.6,7.88,7.88,0,0,0-2.3,3.1,4.49,4.49,0,0,0-.4,2.3,2.22,2.22,0,0,0,1.3,1.9,2.82,2.82,0,0,0,1.8.2,5.87,5.87,0,0,0,4.5-3.7,4,4,0,0,0,.2-2.4h0a2.55,2.55,0,0,0-2.4-1.9l-.9-.1Z" transform="translate(0 0.01)" style="fill:#fff;fill-rule:evenodd;opacity:0.30000001192092896;isolation:isolate"/><path d="M27.6,57.9a11.13,11.13,0,0,0-7.4,4.3,16.4,16.4,0,0,0-3.1,7,2.4,2.4,0,0,0,.5,2.2c.3.3.8.3,1.3.4a4.07,4.07,0,0,0,2.2-.2c1.1-.5,1.5-1.8,2-3,.9-2.4,2.4-4.8,4.8-5.5a.6.6,0,0,1,.4-.1,3,3,0,0,0,2-1.6,2.46,2.46,0,0,0-2.7-3.5Z" transform="translate(0 0.01)" style="fill:#fff;fill-rule:evenodd;opacity:0.30000001192092896;isolation:isolate"/><path d="M93.7,46a5.6,5.6,0,0,0-1.6,1.8,3,3,0,0,0-.2,2.1c.6,1.7,2.5,1.7,3.9,1a34,34,0,0,0,3-2.3,17.76,17.76,0,0,1,5.6-2.5,4.17,4.17,0,0,0,1.8-.8,1.46,1.46,0,0,0,.5-1.7,2.27,2.27,0,0,0-1.8-.9,13.5,13.5,0,0,0-6.6,1l-1,.4A17.76,17.76,0,0,0,93.7,46Z" transform="translate(0 0.01)" style="fill:#fff;fill-rule:evenodd;opacity:0.30000001192092896;isolation:isolate"/><path d="M101.5,81.1a10.51,10.51,0,0,0-3.4,2.6,3.28,3.28,0,0,0-.1,2.9,4.53,4.53,0,0,0,1.1,1.9c1.6,1.5,5.3,1.5,7.1.4a5.64,5.64,0,0,0,2.4-5.1,5.15,5.15,0,0,0-2.3-3.1c-1.1-.7-3.1-.4-4.8.4Z" transform="translate(0 0.01)" style="fill:#cbbebb;fill-rule:evenodd;opacity:0.20000000298023224;isolation:isolate"/><path d="M73.4,93.8l-7.8,19.5a2.62,2.62,0,0,0,1.5,3.4l20.6,8.2a2.56,2.56,0,0,1,1.6,2.8l-4.2,31.4,21.8-39.2a2.58,2.58,0,0,0-.9-3.5l-7.9-4.9a2.64,2.64,0,0,1-.4-4.2l11.8-10.7a2.6,2.6,0,0,0-1.7-4.5h-32A2.7,2.7,0,0,0,73.4,93.8Z" transform="translate(0 0.01)" style="fill:#ffdd4d;fill-rule:evenodd"/><path d="M83.5,95.1a3.6,3.6,0,0,0-3.1-.8,10.94,10.94,0,0,0-3.7,1.4c-1.6,1.1-2.3,2.9-3,4.6a24,24,0,0,0-1.9,7.1c-.1,1-.1,2.3.7,2.9a1.84,1.84,0,0,0,1.9.1,6.1,6.1,0,0,0,1.6-1.2c2.2-2,4.4-4.1,6.5-6.3,1.4-1.6,2.7-3.7,2.2-5.9a6.89,6.89,0,0,0-1.2-1.9Z" transform="translate(0 0.01)" style="fill:#fff;fill-rule:evenodd;opacity:0.30000001192092896;isolation:isolate"/><path d="M87.1,121.4c.6.2,1.2.2,1.8.4a4.14,4.14,0,0,1,3.3,3.5c.2,1.1-.9,3.8.6,4.4a1.81,1.81,0,0,0,1.8-.8c2.6-3,3.1-9.8-1.3-11.5a12.08,12.08,0,0,0-4.6-.5c-1.4.1-2.6.6-2.9,2.2a2.21,2.21,0,0,0,.6,1.9,2.15,2.15,0,0,0,.7.4Z" transform="translate(0 0.01)" style="fill:#fff;fill-rule:evenodd;opacity:0.30000001192092896;isolation:isolate"/><path d="M75.3,155.6c-.3.6-.6,1.2-.9,1.7-3.4,5.4-8.4,6.5-12.8,4.4a9.06,9.06,0,0,1-5.1-7.1,13.78,13.78,0,0,1,1.6-7.5c2.1-4.2,7.2-6.4,10.8-7.4a4.73,4.73,0,0,1,5.7,2.8c1.4,3.5,2.8,8.9.7,13.1Z" transform="translate(0 0.01)" style="fill:#75beea;fill-rule:evenodd"/><path d="M72.6,156.6a1.23,1.23,0,0,1,.7,2c-3.4,4.3-7.9,5-11.8,3.1a8.72,8.72,0,0,1-4.9-6,1.26,1.26,0,0,1,.9-1.5c3-.7,5.2,2.3,7.9,3.3s4.7-1.3,7.2-.9Z" transform="translate(0 0.01)" style="fill:#fff;fill-rule:evenodd;opacity:0.20000000298023224;isolation:isolate"/><path d="M64.4,144.1a3,3,0,0,0-1,.2,5.08,5.08,0,0,0-2.5,2.9c-.3,1.4.8,2.9,2.2,2,1.1-.8,2.9-2.2,2.9-3.8,0-.9-.8-1.3-1.6-1.3Z" transform="translate(0 0.01)" style="fill:#fff;fill-rule:evenodd;opacity:0.5;isolation:isolate"/><path d="M61.3,157.2a2.18,2.18,0,0,0-.7-.9c-.1,0-.1-.1-.2-.1a.94.94,0,0,0-1.3.1,1.06,1.06,0,0,0,0,1.4,6,6,0,0,0,.8.8.37.37,0,0,0,.3.1c.1,0,.2.1.4,0s.8-.1.9-.5a1.83,1.83,0,0,0-.2-.9Z" transform="translate(0 0.01)" style="fill:#fff;fill-rule:evenodd;opacity:0.5;isolation:isolate"/><path d="M63.3,158a2.72,2.72,0,0,1,.9,0,.76.76,0,0,1,.5.2c.2.1.2.4.2.6a.55.55,0,0,1-.4.6c-.4.1-1,.3-1.4-.1A.76.76,0,0,1,63.3,158Z" transform="translate(0 0.01)" style="fill:#fff;fill-rule:evenodd;opacity:0.5;isolation:isolate"/><path d="M142.1,121.1a4.73,4.73,0,0,1-.7,1.2c-2.5,4-6.2,4.8-9.3,3.2a6.39,6.39,0,0,1-3.7-5.2,10,10,0,0,1,1.2-5.5c1.5-3.1,5.2-4.6,7.9-5.4a3.5,3.5,0,0,1,4.2,2.1C142.6,114.2,143.6,118.1,142.1,121.1Z" transform="translate(0 0.01)" style="fill:#75beea;fill-rule:evenodd"/><path d="M140.2,121.9a.9.9,0,0,1,.5,1.5c-2.5,3.1-5.8,3.7-8.6,2.2a6.65,6.65,0,0,1-3.6-4.4,1,1,0,0,1,.6-1.1c2.2-.5,3.8,1.7,5.8,2.4s3.4-.9,5.3-.6Z" transform="translate(0 0.01)" style="fill:#fff;fill-rule:evenodd;opacity:0.20000000298023224;isolation:isolate"/><path d="M134.2,112.8a3.09,3.09,0,0,0-.8.2,3.41,3.41,0,0,0-1.8,2.1c-.2,1,.6,2.1,1.6,1.5.8-.6,2.2-1.6,2.1-2.8A1,1,0,0,0,134.2,112.8Z" transform="translate(0 0.01)" style="fill:#fff;fill-rule:evenodd;opacity:0.5;isolation:isolate"/><path d="M132.6,122.7a3.59,3.59,0,0,0-.7-1c-.1,0-.1-.1-.2-.1a.94.94,0,0,0-1.3.1,1.06,1.06,0,0,0,0,1.4,3,3,0,0,0,.8.8.37.37,0,0,0,.3.1h.4c.3,0,.8-.1.9-.5a1.1,1.1,0,0,0,0-.8c-.2.1-.2.1-.2,0Z" transform="translate(0 0.01)" style="fill:#fff;fill-rule:evenodd;opacity:0.5;isolation:isolate"/><path d="M49.8,126.6c-.3.6-.6,1.2-.9,1.7-3.4,5.4-8.4,6.5-12.8,4.4a9.06,9.06,0,0,1-5.1-7.1,13.78,13.78,0,0,1,1.6-7.5c2.1-4.2,7.2-6.4,10.8-7.4a4.78,4.78,0,0,1,5.7,2.8c1.4,3.6,2.8,8.9.7,13.1Z" transform="translate(0 0.01)" style="fill:#75beea;fill-rule:evenodd"/><path d="M47.2,127.6a1.31,1.31,0,0,1,.7,2.1c-3.4,4.3-7.9,5-11.8,3.1a8.72,8.72,0,0,1-4.9-6,1.31,1.31,0,0,1,.9-1.5c3-.7,5.1,2.3,7.9,3.3,2.7.8,4.6-1.4,7.2-1Z" transform="translate(0 0.01)" style="fill:#fff;fill-rule:evenodd;opacity:0.20000000298023224;isolation:isolate"/><path d="M39,115.1a3.55,3.55,0,0,0-1,.2,5.08,5.08,0,0,0-2.5,2.9c-.3,1.4.8,3,2.2,2,1.1-.8,2.9-2.2,2.9-3.8a1.6,1.6,0,0,0-1.6-1.3Z" transform="translate(0 0.01)" style="fill:#fff;fill-rule:evenodd;opacity:0.5;isolation:isolate"/><path d="M35.8,128.3a3.11,3.11,0,0,0-.7-.9c-.1,0-.1-.1-.2-.1a.94.94,0,0,0-1.3.1,1.06,1.06,0,0,0,0,1.4,6,6,0,0,0,.8.8.37.37,0,0,0,.3.1h.4c.3,0,.8-.1.9-.5a1.49,1.49,0,0,0-.2-.9Z" transform="translate(0 0.01)" style="fill:#fff;fill-rule:evenodd;opacity:0.5;isolation:isolate"/><path d="M37.8,129.1a2.72,2.72,0,0,1,.9,0c.2,0,.4,0,.5.2s.2.4.2.6a.55.55,0,0,1-.4.6c-.4.1-1,.3-1.4-.1S37.2,129.2,37.8,129.1Z" transform="translate(0 0.01)" style="fill:#fff;fill-rule:evenodd;opacity:0.5;isolation:isolate"/><path d="M124.3,152.5c-.3.6-.6,1.1-.9,1.6-3.1,5-7.7,6-11.6,4a7.93,7.93,0,0,1-4.6-6.5,12.08,12.08,0,0,1,1.5-6.8c1.9-3.9,6.6-5.8,9.9-6.8a4.32,4.32,0,0,1,5.2,2.6c1.2,3.2,2.4,8.1.5,11.9Z" transform="translate(0 0.01)" style="fill:#75beea;fill-rule:evenodd"/><path d="M121.9,153.4a1.18,1.18,0,0,1,.7,1.9c-3.1,3.9-7.2,4.6-10.8,2.8a8.06,8.06,0,0,1-4.5-5.5,1.23,1.23,0,0,1,.8-1.4c2.7-.7,4.7,2.1,7.2,3s4.3-1.1,6.6-.8Z" transform="translate(0 0.01)" style="fill:#fff;fill-rule:evenodd;opacity:0.20000000298023224;isolation:isolate"/><path d="M114.4,142a2.39,2.39,0,0,0-.9.2,4.43,4.43,0,0,0-2.3,2.7c-.3,1.2.7,2.7,2,1.8,1-.7,2.7-2,2.6-3.5a1.27,1.27,0,0,0-1.4-1.2Z" transform="translate(0 0.01)" style="fill:#fff;fill-rule:evenodd;opacity:0.5;isolation:isolate"/><path d="M111.6,154a7,7,0,0,0-.6-.9c-.1,0-.1-.1-.2-.1a.92.92,0,0,0-1.2.1,1.05,1.05,0,0,0,0,1.3,2.34,2.34,0,0,0,.7.7c.1.1.1.1.2.1h.3c.3,0,.7-.1.8-.4a.85.85,0,0,0,0-.7V154Z" transform="translate(0 0.01)" style="fill:#fff;fill-rule:evenodd;opacity:0.5;isolation:isolate"/><path d="M113.4,154.8a2.72,2.72,0,0,1,.9,0,.9.9,0,0,1,.5.1,1.07,1.07,0,0,1,.2.6c0,.3-.1.4-.4.5a1.5,1.5,0,0,1-1.3-.1c-.5-.3-.5-1,.1-1.1Z" transform="translate(0 0.01)" style="fill:#fff;fill-rule:evenodd;opacity:0.5;isolation:isolate"/><path d="M25.2,158a12.75,12.75,0,0,1-.7,1.2c-2.5,4-6.2,4.8-9.3,3.2a6.2,6.2,0,0,1-3.7-5.2,10,10,0,0,1,1.2-5.5c1.5-3.1,5.2-4.6,7.9-5.4a3.5,3.5,0,0,1,4.2,2.1C25.7,151,26.7,154.9,25.2,158Z" transform="translate(0 0.01)" style="fill:#75beea;fill-rule:evenodd"/><path d="M23.3,158.7a.89.89,0,0,1,.5,1.5c-2.5,3.1-5.8,3.7-8.6,2.2a6.65,6.65,0,0,1-3.6-4.4,1,1,0,0,1,.6-1.1c2.2-.5,3.8,1.7,5.8,2.4s3.4-.9,5.3-.6Z" transform="translate(0 0.01)" style="fill:#fff;fill-rule:evenodd;opacity:0.20000000298023224;isolation:isolate"/><path d="M17.3,149.6a3.09,3.09,0,0,0-.8.2,3.41,3.41,0,0,0-1.8,2.1c-.2,1,.6,2.1,1.6,1.5.8-.6,2.2-1.6,2.1-2.8a1,1,0,0,0-1.1-1Z" transform="translate(0 0.01)" style="fill:#fff;fill-rule:evenodd;opacity:0.5;isolation:isolate"/><path d="M15.7,159.6a3.59,3.59,0,0,0-.7-1c-.1,0-.1-.1-.2-.1a.94.94,0,0,0-1.3.1,1.2,1.2,0,0,0,0,1.5,3,3,0,0,0,.8.8.37.37,0,0,0,.3.1H15c.3,0,.8-.1.9-.5a1.1,1.1,0,0,0,0-.8l-.2-.1Z" transform="translate(0 0.01)" style="fill:#fff;fill-rule:evenodd;opacity:0.5;isolation:isolate"/><path d="M95.3,184.8c-.2.4-.5.8-.7,1.2-2.5,4-6.2,4.8-9.3,3.2a6.2,6.2,0,0,1-3.7-5.2,10,10,0,0,1,1.2-5.5c1.5-3.1,5.2-4.6,7.9-5.4a3.5,3.5,0,0,1,4.2,2.1C95.8,177.8,96.8,181.7,95.3,184.8Z" transform="translate(0 0.01)" style="fill:#75beea;fill-rule:evenodd"/><path d="M93.4,185.5a.89.89,0,0,1,.5,1.5c-2.5,3.1-5.8,3.7-8.6,2.2a6.65,6.65,0,0,1-3.6-4.4,1,1,0,0,1,.6-1.1c2.2-.5,3.8,1.7,5.8,2.4s3.4-.9,5.3-.6Z" transform="translate(0 0.01)" style="fill:#fff;fill-rule:evenodd;opacity:0.20000000298023224;isolation:isolate"/><path d="M87.4,176.4a3.09,3.09,0,0,0-.8.2,3.41,3.41,0,0,0-1.8,2.1c-.2,1,.6,2.1,1.6,1.4.8-.6,2.1-1.6,2.1-2.8,0-.6-.5-.9-1.1-.9Z" transform="translate(0 0.01)" style="fill:#fff;fill-rule:evenodd;opacity:0.5;isolation:isolate"/><path d="M85.8,186.3a3.59,3.59,0,0,0-.7-1c-.1,0-.1-.1-.2-.1a.94.94,0,0,0-1.3.1,1.06,1.06,0,0,0,0,1.4,3,3,0,0,0,.8.8c.1.1.2.1.3.2h.4c.3,0,.8-.1.9-.5a1.1,1.1,0,0,0,0-.8c-.2,0-.2,0-.2-.1Z" transform="translate(0 0.01)" style="fill:#fff;fill-rule:evenodd;opacity:0.5;isolation:isolate"/><path d="M54.4,194.8a12.75,12.75,0,0,1-.7,1.2c-2.5,4-6.2,4.8-9.3,3.2a6.2,6.2,0,0,1-3.7-5.2,10,10,0,0,1,1.2-5.5c1.5-3.1,5.2-4.6,7.9-5.4a3.5,3.5,0,0,1,4.2,2.1C55,187.8,56,191.7,54.4,194.8Z" transform="translate(0 0.01)" style="fill:#75beea;fill-rule:evenodd"/><path d="M52.5,195.5A.89.89,0,0,1,53,197c-2.5,3.1-5.8,3.7-8.6,2.2a6.65,6.65,0,0,1-3.6-4.4,1,1,0,0,1,.6-1.1c2.2-.5,3.8,1.7,5.8,2.4s3.5-.9,5.3-.6Z" transform="translate(0 0.01)" style="fill:#fff;fill-rule:evenodd;opacity:0.20000000298023224;isolation:isolate"/><path d="M46.6,186.4a3.09,3.09,0,0,0-.8.2,3.35,3.35,0,0,0-1.8,2.2c-.2,1,.6,2.1,1.6,1.4.8-.6,2.1-1.6,2.1-2.8a1,1,0,0,0-1.1-1Z" transform="translate(0 0.01)" style="fill:#fff;fill-rule:evenodd;opacity:0.5;isolation:isolate"/><path d="M45,196.4a3.59,3.59,0,0,0-.7-1c-.1,0-.1-.1-.2-.1a.94.94,0,0,0-1.3.1,1.2,1.2,0,0,0,0,1.5,3,3,0,0,0,.8.8.37.37,0,0,0,.3.1h.4c.3,0,.8-.1.9-.5a1.1,1.1,0,0,0,0-.8c-.2,0-.2-.1-.2-.1Z" transform="translate(0 0.01)" style="fill:#fff;fill-rule:evenodd;opacity:0.5;isolation:isolate"/></g></svg>