<svg id="Vintagio_Design" data-name="Vintagio Design" xmlns="http://www.w3.org/2000/svg" viewBox="0 0 178.71 199.8"><title>sun</title><g id="c"><path d="M145.4,100.2a56,56,0,0,1-112,0,57.62,57.62,0,0,1,3.3-19.1,56,56,0,0,1,108.7,19.1Z" transform="translate(-0.05 -0.1)" style="fill:#ffc34a;fill-rule:evenodd"/><path d="M96.2,84.1c-4.8-.5-9.6-1.5-14.4-1.3-7.9.3-12.9,4.4-16.6,11.1-3.2,5.8-5.7,12.9-12.4,15.4A8.72,8.72,0,0,1,44,108a14.85,14.85,0,0,1-2.7-4.3c0-.1-.1-.1-.1-.2a39.49,39.49,0,0,1,8.9-43.1,55.93,55.93,0,0,1,51.7-14.7,22.18,22.18,0,0,1,17.3,18,4.1,4.1,0,0,1,.1,1.1c1.4,13.7-10.7,20.6-23,19.3Z" transform="translate(-0.05 -0.1)" style="fill:#ffe332;fill-rule:evenodd;opacity:0.6000000238418579;isolation:isolate"/><path d="M59.7,66.5a7.43,7.43,0,0,0-2.6.3,14.57,14.57,0,0,0-9.9,9.4c-.9,2.9-.8,6.6,2.6,7.8a7.47,7.47,0,0,0,2,.3c2.6-.2,4.7-1.7,6.7-3.2l6.6-5a6.21,6.21,0,0,0,2.1-2.7c1-2.6-.4-4.4-2.3-5.5a8.75,8.75,0,0,0-3.8-1.1l-1.4-.3Z" transform="translate(-0.05 -0.1)" style="fill:#fff;fill-rule:evenodd;opacity:0.30000001192092896;isolation:isolate"/><path d="M61.3,129.3a11.09,11.09,0,0,0,.7,6.5c5.3,12.1,25,18.3,34.3,7.5a12.81,12.81,0,0,0,.9-16,14.05,14.05,0,0,0-6.2-4.5c-7.5-3.5-20.1-6.5-26.6.2A14.91,14.91,0,0,0,61.3,129.3Z" transform="translate(-0.05 -0.1)" style="fill:#fff;fill-rule:evenodd;opacity:0.15000000596046448;isolation:isolate"/><path d="M74.6,137.4a4.74,4.74,0,0,0,.8,4.4,9.24,9.24,0,0,0,4.3,2.8c1.7.5,3.7.7,5.2-.4,2.7-2.1,1.8-7-1.1-8.5a11.72,11.72,0,0,0-3.2-.9c-2.5-.3-5.2-.1-6,2.6Z" transform="translate(-0.05 -0.1)" style="fill:#fff;fill-rule:evenodd;opacity:0.15000000596046448;isolation:isolate"/><path d="M89.6,100.2a.2.2,0,1,1-.4,0v-.1a.22.22,0,0,1,.2-.2h.1a.77.77,0,0,1,.1.3Z" transform="translate(-0.05 -0.1)" style="fill-rule:evenodd"/><path d="M89.4,34.8h0A6.43,6.43,0,0,1,83,28.9L80.8,4.7A4.2,4.2,0,0,1,85,.1h8.8A4.2,4.2,0,0,1,98,4.7L95.8,28.9a6.36,6.36,0,0,1-6.4,5.9Z" transform="translate(-0.05 -0.1)" style="fill:#ffc34a;fill-rule:evenodd"/><path d="M32.9,67.4h0A6.46,6.46,0,0,1,24.6,70L2.5,59.8A4.28,4.28,0,0,1,.6,53.9L5,46.2a4.14,4.14,0,0,1,6.1-1.3L31,58.9A6.35,6.35,0,0,1,32.9,67.4Z" transform="translate(-0.05 -0.1)" style="fill:#ffc34a;fill-rule:evenodd"/><path d="M32.9,132.6h0a6.35,6.35,0,0,1-1.9,8.5l-19.9,14A4.3,4.3,0,0,1,5,153.8L.6,146.2a4.31,4.31,0,0,1,1.9-6L24.6,130a6.46,6.46,0,0,1,8.3,2.6Z" transform="translate(-0.05 -0.1)" style="fill:#ffc34a;fill-rule:evenodd"/><path d="M89.4,165.2h0a6.6,6.6,0,0,1,6.5,5.9l2.2,24.2a4.2,4.2,0,0,1-4.2,4.6H85.1a4.2,4.2,0,0,1-4.2-4.6l2.2-24.2a6.2,6.2,0,0,1,6.3-5.9Z" transform="translate(-0.05 -0.1)" style="fill:#ffc34a;fill-rule:evenodd"/><path d="M145.9,132.6h0a6.46,6.46,0,0,1,8.3-2.6l22.1,10.2a4.28,4.28,0,0,1,1.9,5.9l-4.4,7.7a4.21,4.21,0,0,1-6.1,1.3l-19.9-14a6.35,6.35,0,0,1-1.9-8.5Z" transform="translate(-0.05 -0.1)" style="fill:#ffc34a;fill-rule:evenodd"/><path d="M145.9,67.4h0a6.35,6.35,0,0,1,1.9-8.5l19.9-14a4.29,4.29,0,0,1,6.1,1.3l4.4,7.6a4.16,4.16,0,0,1-1.9,5.9L154.2,70a6.46,6.46,0,0,1-8.3-2.6Z" transform="translate(-0.05 -0.1)" style="fill:#ffc34a;fill-rule:evenodd"/><path d="M57,44.3h0a2.85,2.85,0,0,1-3.8-.9L46.1,32.1a3.33,3.33,0,0,1,1.2-4.7h0A3.42,3.42,0,0,1,52,28.7l6.2,11.8A2.93,2.93,0,0,1,57,44.3Z" transform="translate(-0.05 -0.1)" style="fill:#ffe332;fill-rule:evenodd"/><path d="M24.9,100.5h0a2.78,2.78,0,0,1-2.7,2.8l-13.3.5a3.33,3.33,0,0,1-3.5-3.4h0A3.46,3.46,0,0,1,8.9,97l13.3.5A3.11,3.11,0,0,1,24.9,100.5Z" transform="translate(-0.05 -0.1)" style="fill:#ffe332;fill-rule:evenodd"/><path d="M57.5,156.5h0a2.89,2.89,0,0,1,1.1,3.8L52.4,172a3.46,3.46,0,0,1-4.7,1.4h0a3.36,3.36,0,0,1-1.2-4.7l7.1-11.3a2.9,2.9,0,0,1,3.9-.9Z" transform="translate(-0.05 -0.1)" style="fill:#ffe332;fill-rule:evenodd"/><path d="M122.3,156.2h0a2.85,2.85,0,0,1,3.8.9l7.1,11.3a3.33,3.33,0,0,1-1.2,4.7h0a3.37,3.37,0,0,1-4.7-1.4l-6.2-11.8a2.84,2.84,0,0,1,1.2-3.7Z" transform="translate(-0.05 -0.1)" style="fill:#ffe332;fill-rule:evenodd"/><path d="M154.4,100h0a2.78,2.78,0,0,1,2.7-2.8l13.3-.5a3.33,3.33,0,0,1,3.5,3.4h0a3.46,3.46,0,0,1-3.5,3.4l-13.3-.5A3.11,3.11,0,0,1,154.4,100Z" transform="translate(-0.05 -0.1)" style="fill:#ffe332;fill-rule:evenodd"/><path d="M121.8,44h0a2.89,2.89,0,0,1-1.1-3.8l6.2-11.8a3.34,3.34,0,0,1,4.7-1.3h0a3.36,3.36,0,0,1,1.2,4.7l-7.1,11.3A2.9,2.9,0,0,1,121.8,44Z" transform="translate(-0.05 -0.1)" style="fill:#ffe332;fill-rule:evenodd"/></g></svg>