<svg xmlns="http://www.w3.org/2000/svg" viewBox="0 0 118.94 106"><defs><style>.cls-1{fill:#fff;}.cls-2{fill:#0ef;}</style></defs><title>Asset 1</title><g id="Layer_2" data-name="Layer 2"><g id="Layer_1-2" data-name="Layer 1"><path class="cls-1" d="M23.28,70.88c2.14-3.47,4.22-6.84,6.31-10.21,1.66-2.69,3.35-5.37,5-8.08a1.47,1.47,0,0,0,0-1.31q-9.48-12.75-19-25.46c-.06-.08-.19-.12-.43-.27V106H0V.12C.35.09.68,0,1,0c4.32,0,8.64,0,13,0a2.09,2.09,0,0,1,1.88,1Q29.28,18.9,42.73,36.75l1,1.22c.94-1.48,1.83-2.87,2.7-4.27Q56.54,17.36,66.68,1a1.76,1.76,0,0,1,1.69-1q24.76,0,49.51,0c.33,0,.67,0,1.06.06V12.17H82.83v5.11c0,4.49,0,9,0,13.47a2,2,0,0,1-.46,1.35c-4.9,4.19-9.83,8.33-15,12.7V29.44L67,29.36l-.71,1.12Q54,50.34,41.58,70.18a1.83,1.83,0,0,1-1.22.84c-5.55.06-11.11,0-16.67,0C23.61,71.06,23.54,71,23.28,70.88Z"/><path class="cls-2" d="M67.32,106v-2.27q0-18.6,0-37.18a2.28,2.28,0,0,1,1.07-2.11Q82.54,54.21,96.66,43.9l9.87-7.19c.3-.22.64-.38,1.14-.68v2.33c0,4.66,0,9.32,0,14a2.11,2.11,0,0,1-.78,1.53Q95.5,61.79,84.08,69.6A2.56,2.56,0,0,0,82.8,72q0,16.29,0,32.57V106Z"/></g></g></svg>